<svg width="296" height="168" viewBox="0 0 296 168" fill="none" xmlns="http://www.w3.org/2000/svg">
<path d="M25.802 112.891H69.8381V80.3088H25.802L25.802 112.891Z" fill="#F5F5F5"/>
<path d="M36.8358 112.662C36.895 112.662 36.9457 105.397 36.9457 96.4413C36.9457 87.4814 36.895 80.2211 36.8358 80.2211C36.7766 80.2211 36.7258 87.4814 36.7258 96.4413C36.7258 105.401 36.7723 112.662 36.8358 112.662Z" fill="#EBEBEB"/>
<path d="M29.5366 109.139H32.9106V105.476H29.5366V109.139Z" fill="#FAFAFA"/>
<path d="M56.4035 80.3916H51.4016V87.3437H56.4035V80.3916Z" fill="#EBEBEB"/>
<path d="M56.4035 105.843H51.4016V112.795H56.4035V105.843Z" fill="#EBEBEB"/>
<path d="M86.6219 113.351H13.9231V167.139H86.6219V113.351Z" fill="#EBEBEB"/>
<path d="M68.4072 166.762C68.3268 166.762 68.2634 154.772 68.2634 139.987C68.2634 125.195 68.3268 113.209 68.4072 113.209C68.4875 113.209 68.5509 125.195 68.5509 139.987C68.5509 154.772 68.4833 166.762 68.4072 166.762Z" fill="#E0E0E0"/>
<path d="M80.4528 154.897H74.8801V160.941H80.4528V154.897Z" fill="#FAFAFA"/>
<path d="M44.3574 113.489H36.0999V124.968H44.3574V113.489Z" fill="#E0E0E0"/>
<path d="M44.3574 155.502H36.0999V166.981H44.3574V155.502Z" fill="#E0E0E0"/>
<path d="M143.419 18.6013C143.419 18.6581 142.945 18.7068 142.362 18.7068C141.778 18.7068 141.305 18.6581 141.305 18.6013C141.305 18.5445 141.778 18.4958 142.362 18.4958C142.945 18.4958 143.419 18.5405 143.419 18.6013Z" fill="#EBEBEB"/>
<path d="M147.647 18.6012C147.647 18.658 147.173 18.7066 146.59 18.7066C146.006 18.7066 145.533 18.658 145.533 18.6012C145.533 18.5444 146.006 18.4957 146.59 18.4957C147.173 18.4957 147.647 18.5403 147.647 18.6012Z" fill="#EBEBEB"/>
<path d="M151.875 18.6012C151.875 18.658 151.401 18.7066 150.818 18.7066C150.234 18.7066 149.761 18.658 149.761 18.6012C149.761 18.5444 150.234 18.4957 150.818 18.4957C151.401 18.4957 151.875 18.5403 151.875 18.6012Z" fill="#EBEBEB"/>
<path d="M156.103 18.6012C156.103 18.658 155.63 18.7066 155.046 18.7066C154.463 18.7066 153.989 18.658 153.989 18.6012C153.989 18.5444 154.463 18.4957 155.046 18.4957C155.63 18.4957 156.103 18.5403 156.103 18.6012Z" fill="#EBEBEB"/>
<path d="M160.331 18.6012C160.331 18.658 159.858 18.7066 159.274 18.7066C158.691 18.7066 158.217 18.658 158.217 18.6012C158.217 18.5444 158.691 18.4957 159.274 18.4957C159.858 18.4957 160.331 18.5403 160.331 18.6012Z" fill="#EBEBEB"/>
<path d="M164.559 18.6012C164.559 18.658 164.086 18.7066 163.502 18.7066C162.919 18.7066 162.445 18.658 162.445 18.6012C162.445 18.5444 162.919 18.4957 163.502 18.4957C164.086 18.4957 164.559 18.5403 164.559 18.6012Z" fill="#EBEBEB"/>
<path d="M168.787 18.6012C168.787 18.658 168.314 18.7066 167.73 18.7066C167.147 18.7066 166.673 18.658 166.673 18.6012C166.673 18.5444 167.147 18.4957 167.73 18.4957C168.314 18.4957 168.787 18.5403 168.787 18.6012Z" fill="#EBEBEB"/>
<path d="M173.015 18.6012C173.015 18.658 172.542 18.7066 171.958 18.7066C171.375 18.7066 170.901 18.658 170.901 18.6012C170.901 18.5444 171.375 18.4957 171.958 18.4957C172.542 18.4957 173.015 18.5403 173.015 18.6012Z" fill="#EBEBEB"/>
<path d="M177.244 18.6012C177.244 18.658 176.77 18.7066 176.187 18.7066C175.603 18.7066 175.13 18.658 175.13 18.6012C175.13 18.5444 175.603 18.4957 176.187 18.4957C176.77 18.4957 177.244 18.5403 177.244 18.6012Z" fill="#EBEBEB"/>
<path d="M181.472 18.6012C181.472 18.658 180.998 18.7066 180.415 18.7066C179.831 18.7066 179.358 18.658 179.358 18.6012C179.358 18.5444 179.831 18.4957 180.415 18.4957C180.998 18.4957 181.472 18.5403 181.472 18.6012Z" fill="#EBEBEB"/>
<path d="M185.7 18.6012C185.7 18.658 185.226 18.7066 184.643 18.7066C184.059 18.7066 183.586 18.658 183.586 18.6012C183.586 18.5444 184.059 18.4957 184.643 18.4957C185.226 18.4957 185.7 18.5403 185.7 18.6012Z" fill="#EBEBEB"/>
<path d="M189.929 18.6012C189.929 18.658 189.455 18.7066 188.871 18.7066C188.288 18.7066 187.814 18.658 187.814 18.6012C187.814 18.5444 188.288 18.4957 188.871 18.4957C189.455 18.4957 189.929 18.5403 189.929 18.6012Z" fill="#EBEBEB"/>
<path d="M194.157 18.6012C194.157 18.658 193.683 18.7066 193.1 18.7066C192.516 18.7066 192.042 18.658 192.042 18.6012C192.042 18.5444 192.516 18.4957 193.1 18.4957C193.683 18.4957 194.157 18.5403 194.157 18.6012Z" fill="#EBEBEB"/>
<path d="M198.385 18.6012C198.385 18.658 197.911 18.7066 197.328 18.7066C196.744 18.7066 196.271 18.658 196.271 18.6012C196.271 18.5444 196.744 18.4957 197.328 18.4957C197.911 18.4957 198.385 18.5403 198.385 18.6012Z" fill="#EBEBEB"/>
<path d="M202.613 18.6012C202.613 18.658 202.139 18.7066 201.556 18.7066C200.972 18.7066 200.499 18.658 200.499 18.6012C200.499 18.5444 200.972 18.4957 201.556 18.4957C202.139 18.4957 202.613 18.5403 202.613 18.6012Z" fill="#EBEBEB"/>
<path d="M206.841 18.6012C206.841 18.658 206.367 18.7066 205.784 18.7066C205.2 18.7066 204.727 18.658 204.727 18.6012C204.727 18.5444 205.2 18.4957 205.784 18.4957C206.367 18.4957 206.841 18.5403 206.841 18.6012Z" fill="#EBEBEB"/>
<path d="M211.069 18.6012C211.069 18.658 210.596 18.7066 210.012 18.7066C209.429 18.7066 208.955 18.658 208.955 18.6012C208.955 18.5444 209.429 18.4957 210.012 18.4957C210.596 18.4957 211.069 18.5403 211.069 18.6012Z" fill="#EBEBEB"/>
<path d="M215.297 18.6012C215.297 18.658 214.824 18.7066 214.24 18.7066C213.657 18.7066 213.183 18.658 213.183 18.6012C213.183 18.5444 213.657 18.4957 214.24 18.4957C214.824 18.4957 215.297 18.5403 215.297 18.6012Z" fill="#EBEBEB"/>
<path d="M219.525 18.6012C219.525 18.658 219.052 18.7066 218.468 18.7066C217.885 18.7066 217.411 18.658 217.411 18.6012C217.411 18.5444 217.885 18.4957 218.468 18.4957C219.052 18.4957 219.525 18.5403 219.525 18.6012Z" fill="#EBEBEB"/>
<path d="M223.753 18.6012C223.753 18.658 223.28 18.7066 222.696 18.7066C222.113 18.7066 221.639 18.658 221.639 18.6012C221.639 18.5444 222.113 18.4957 222.696 18.4957C223.28 18.4957 223.753 18.5403 223.753 18.6012Z" fill="#EBEBEB"/>
<path d="M227.982 18.6012C227.982 18.658 227.508 18.7066 226.924 18.7066C226.341 18.7066 225.867 18.658 225.867 18.6012C225.867 18.5444 226.341 18.4957 226.924 18.4957C227.508 18.4957 227.982 18.5403 227.982 18.6012Z" fill="#EBEBEB"/>
<path d="M232.21 18.6012C232.21 18.658 231.736 18.7066 231.153 18.7066C230.569 18.7066 230.096 18.658 230.096 18.6012C230.096 18.5444 230.569 18.4957 231.153 18.4957C231.736 18.4957 232.21 18.5403 232.21 18.6012Z" fill="#EBEBEB"/>
<path d="M236.438 18.6012C236.438 18.658 235.964 18.7066 235.381 18.7066C234.797 18.7066 234.324 18.658 234.324 18.6012C234.324 18.5444 234.797 18.4957 235.381 18.4957C235.964 18.4957 236.438 18.5403 236.438 18.6012Z" fill="#EBEBEB"/>
<path d="M237.52 21.6148C237.461 21.6148 237.41 21.1605 237.41 20.6008C237.41 20.0411 237.461 19.5868 237.52 19.5868C237.58 19.5868 237.63 20.0411 237.63 20.6008C237.63 21.1646 237.58 21.6148 237.52 21.6148Z" fill="#EBEBEB"/>
<path d="M237.52 25.671C237.461 25.671 237.41 25.2167 237.41 24.657C237.41 24.0972 237.461 23.6429 237.52 23.6429C237.58 23.6429 237.63 24.0972 237.63 24.657C237.63 25.2208 237.58 25.671 237.52 25.671Z" fill="#EBEBEB"/>
<path d="M237.52 29.7271C237.461 29.7271 237.41 29.2729 237.41 28.7131C237.41 28.1534 237.461 27.6991 237.52 27.6991C237.58 27.6991 237.63 28.1534 237.63 28.7131C237.63 29.2769 237.58 29.7271 237.52 29.7271Z" fill="#EBEBEB"/>
<path d="M237.52 33.7832C237.461 33.7832 237.41 33.3289 237.41 32.7691C237.41 32.2094 237.461 31.7551 237.52 31.7551C237.58 31.7551 237.63 32.2094 237.63 32.7691C237.63 33.3329 237.58 33.7832 237.52 33.7832Z" fill="#EBEBEB"/>
<path d="M237.52 37.8393C237.461 37.8393 237.41 37.385 237.41 36.8253C237.41 36.2656 237.461 35.8113 237.52 35.8113C237.58 35.8113 237.63 36.2656 237.63 36.8253C237.63 37.3891 237.58 37.8393 237.52 37.8393Z" fill="#EBEBEB"/>
<path d="M238.345 41.1043C238.345 41.153 237.994 41.1976 237.52 41.2057L237.415 41.2097V41.1043C237.415 41.0272 237.415 40.9542 237.41 40.8812C237.41 40.3215 237.461 39.8672 237.52 39.8672C237.58 39.8672 237.63 40.3215 237.63 40.8812C237.63 40.9542 237.63 41.0272 237.626 41.1043L237.52 41.0029C237.994 41.0151 238.345 41.0556 238.345 41.1043Z" fill="#EBEBEB"/>
<path d="M242.573 41.1042C242.573 41.161 242.1 41.2097 241.516 41.2097C240.933 41.2097 240.459 41.161 240.459 41.1042C240.459 41.0474 240.933 40.9988 241.516 40.9988C242.1 40.9988 242.573 41.0474 242.573 41.1042Z" fill="#EBEBEB"/>
<path d="M246.801 41.1042C246.801 41.161 246.328 41.2097 245.744 41.2097C245.161 41.2097 244.687 41.161 244.687 41.1042C244.687 41.0474 245.161 40.9988 245.744 40.9988C246.328 40.9988 246.801 41.0474 246.801 41.1042Z" fill="#EBEBEB"/>
<path d="M251.029 41.1042C251.029 41.161 250.556 41.2097 249.972 41.2097C249.389 41.2097 248.915 41.161 248.915 41.1042C248.915 41.0474 249.389 40.9988 249.972 40.9988C250.556 40.9988 251.029 41.0474 251.029 41.1042Z" fill="#EBEBEB"/>
<path d="M255.258 41.1042C255.258 41.161 254.784 41.2097 254.201 41.2097C253.617 41.2097 253.144 41.161 253.144 41.1042C253.144 41.0474 253.617 40.9988 254.201 40.9988C254.784 40.9988 255.258 41.0474 255.258 41.1042Z" fill="#EBEBEB"/>
<path d="M259.486 41.1042C259.486 41.161 259.012 41.2097 258.429 41.2097C257.845 41.2097 257.372 41.161 257.372 41.1042C257.372 41.0474 257.845 40.9988 258.429 40.9988C259.012 40.9988 259.486 41.0474 259.486 41.1042Z" fill="#EBEBEB"/>
<path d="M263.714 41.1042C263.714 41.161 263.24 41.2097 262.657 41.2097C262.073 41.2097 261.6 41.161 261.6 41.1042C261.6 41.0474 262.073 40.9988 262.657 40.9988C263.24 40.9988 263.714 41.0474 263.714 41.1042Z" fill="#EBEBEB"/>
<path d="M267.942 41.1042C267.942 41.161 267.468 41.2097 266.885 41.2097C266.301 41.2097 265.828 41.161 265.828 41.1042C265.828 41.0474 266.301 40.9988 266.885 40.9988C267.468 40.9988 267.942 41.0474 267.942 41.1042Z" fill="#EBEBEB"/>
<path d="M272.17 41.1042C272.17 41.161 271.696 41.2097 271.113 41.2097C270.529 41.2097 270.056 41.161 270.056 41.1042C270.056 41.0474 270.529 40.9988 271.113 40.9988C271.696 40.9988 272.17 41.0474 272.17 41.1042Z" fill="#EBEBEB"/>
<path d="M273.815 43.5866C273.756 43.5866 273.705 43.1323 273.705 42.5726C273.705 42.0129 273.756 41.5586 273.815 41.5586C273.874 41.5586 273.925 42.0129 273.925 42.5726C273.925 43.1323 273.874 43.5866 273.815 43.5866Z" fill="#EBEBEB"/>
<path d="M273.815 47.6427C273.756 47.6427 273.705 47.1884 273.705 46.6286C273.705 46.0689 273.756 45.6146 273.815 45.6146C273.874 45.6146 273.925 46.0689 273.925 46.6286C273.925 47.1884 273.874 47.6427 273.815 47.6427Z" fill="#EBEBEB"/>
<path d="M273.815 51.6988C273.756 51.6988 273.705 51.2445 273.705 50.6848C273.705 50.1251 273.756 49.6708 273.815 49.6708C273.874 49.6708 273.925 50.1251 273.925 50.6848C273.925 51.2445 273.874 51.6988 273.815 51.6988Z" fill="#EBEBEB"/>
<path d="M273.815 55.7548C273.756 55.7548 273.705 55.3006 273.705 54.7408C273.705 54.1811 273.756 53.7268 273.815 53.7268C273.874 53.7268 273.925 54.1811 273.925 54.7408C273.925 55.3006 273.874 55.7548 273.815 55.7548Z" fill="#EBEBEB"/>
<path d="M273.815 59.8109C273.756 59.8109 273.705 59.3566 273.705 58.7969C273.705 58.2371 273.756 57.7828 273.815 57.7828C273.874 57.7828 273.925 58.2371 273.925 58.7969C273.925 59.3566 273.874 59.8109 273.815 59.8109Z" fill="#EBEBEB"/>
<path d="M273.815 63.867C273.756 63.867 273.705 63.4127 273.705 62.853C273.705 62.2933 273.756 61.839 273.815 61.839C273.874 61.839 273.925 62.2933 273.925 62.853C273.925 63.4127 273.874 63.867 273.815 63.867Z" fill="#EBEBEB"/>
<path d="M273.815 67.9231C273.756 67.9231 273.705 67.4688 273.705 66.909C273.705 66.3493 273.756 65.895 273.815 65.895C273.874 65.895 273.925 66.3493 273.925 66.909C273.925 67.4688 273.874 67.9231 273.815 67.9231Z" fill="#EBEBEB"/>
<path d="M273.815 71.9791C273.756 71.9791 273.705 71.5248 273.705 70.9651C273.705 70.4053 273.756 69.951 273.815 69.951C273.874 69.951 273.925 70.4053 273.925 70.9651C273.925 71.5248 273.874 71.9791 273.815 71.9791Z" fill="#EBEBEB"/>
<path d="M273.815 76.0351C273.756 76.0351 273.705 75.5808 273.705 75.0211C273.705 74.4614 273.756 74.0071 273.815 74.0071C273.874 74.0071 273.925 74.4614 273.925 75.0211C273.925 75.5808 273.874 76.0351 273.815 76.0351Z" fill="#EBEBEB"/>
<path d="M273.815 80.0913C273.756 80.0913 273.705 79.637 273.705 79.0773C273.705 78.5175 273.756 78.0632 273.815 78.0632C273.874 78.0632 273.925 78.5175 273.925 79.0773C273.925 79.637 273.874 80.0913 273.815 80.0913Z" fill="#EBEBEB"/>
<path d="M273.815 84.1473C273.756 84.1473 273.705 83.693 273.705 83.1333C273.705 82.5735 273.756 82.1193 273.815 82.1193C273.874 82.1193 273.925 82.5735 273.925 83.1333C273.925 83.693 273.874 84.1473 273.815 84.1473Z" fill="#EBEBEB"/>
<path d="M165.604 25.521C165.604 25.521 162.323 23.7769 159.105 31.2238C155.887 38.6708 154.784 42.9053 154.784 42.9053C154.784 42.9053 153.9 44.4791 152.746 43.5827C151.592 42.6822 149.892 40.0133 148.108 40.6501C146.256 41.3113 145.799 43.388 146.404 46.3367C147.008 49.2896 148.087 55.7996 148.184 56.3917C148.277 56.9718 148.002 57.8519 147.11 57.3611C146.222 56.8704 140.945 52.0517 138.713 54.5908C136.48 57.1299 139.575 65.0839 139.897 65.96C140.218 66.8361 140.066 67.2336 139.643 67.4851C139.22 67.7406 137.605 65.96 136.045 64.6499C134.485 63.3398 132.438 62.0824 131.28 63.648C130.121 65.2177 130.21 71.3546 137.081 80.8174L140.565 85.0033L146.12 84.2853C157.917 82.0545 162.424 77.6983 162.724 75.796C163.025 73.8937 160.64 73.4354 158.572 73.3421C156.501 73.2488 154.052 73.4516 153.93 72.9851C153.807 72.5187 153.985 72.1333 154.852 71.7156C155.718 71.2978 163.701 67.6352 163.934 64.3214C164.166 61.0075 156.881 60.9589 155.887 60.7196C154.894 60.4803 155.334 59.6609 155.82 59.3081C156.315 58.9471 161.807 54.9802 164.378 53.2604C166.948 51.5407 168.124 49.7438 167.27 48.0322C166.449 46.3854 163.291 47.1723 161.811 47.0506C160.331 46.9289 160.834 45.2091 160.834 45.2091C160.834 45.2091 163.109 41.4248 166.183 33.9252C169.257 26.4255 165.54 25.4885 165.54 25.4885" fill="#EBEBEB"/>
<path d="M140.755 83.8958C143.034 78.3958 146.252 70.8231 149.833 62.4676C153.414 54.1161 156.649 46.5516 158.962 41.0637C160.112 38.3259 161.046 36.1072 161.693 34.5618C162.014 33.7993 162.264 33.2071 162.437 32.7934C162.522 32.5987 162.589 32.4446 162.636 32.335C162.682 32.2336 162.708 32.1809 162.708 32.1809C162.708 32.1809 162.691 32.2377 162.653 32.3432C162.61 32.4567 162.551 32.6109 162.471 32.8096C162.306 33.2233 162.065 33.8236 161.761 34.5902C161.139 36.1356 160.226 38.3624 159.084 41.1124C156.805 46.6124 153.588 54.1851 150.006 62.5365C146.425 70.8921 143.186 78.4566 140.878 83.9445" fill="#E0E0E0"/>
<path d="M150.332 44.479C150.344 44.4749 150.404 44.6007 150.505 44.8278C150.607 45.059 150.742 45.3916 150.903 45.8094C151.224 46.6449 151.642 47.805 152.074 49.0988C152.492 50.3724 152.873 51.5203 153.165 52.4086C153.296 52.802 153.41 53.1346 153.499 53.4104C153.579 53.6457 153.617 53.7795 153.604 53.7836C153.592 53.7877 153.528 53.6619 153.427 53.4348C153.325 53.2036 153.19 52.8669 153.034 52.4492C152.716 51.6136 152.319 50.4455 151.888 49.1516C151.461 47.882 151.072 46.7382 150.771 45.8499C150.636 45.4565 150.522 45.1239 150.429 44.8481C150.357 44.6169 150.319 44.483 150.332 44.479Z" fill="#E0E0E0"/>
<path d="M154.129 53.8444C154.112 53.7958 156.573 52.8669 159.625 51.7718C162.682 50.6726 165.173 49.8249 165.19 49.8695C165.206 49.9182 162.746 50.847 159.693 51.9421C156.636 53.0413 154.146 53.8931 154.129 53.8444Z" fill="#E0E0E0"/>
<path d="M148.023 66.4345C148.023 66.4224 148.167 66.4021 148.434 66.3818C148.738 66.3575 149.11 66.3331 149.55 66.3007C150.493 66.2317 151.795 66.1263 153.224 65.9681C154.657 65.8099 155.947 65.6233 156.881 65.4814C157.317 65.4165 157.685 65.3597 157.989 65.3151C158.251 65.2786 158.395 65.2623 158.399 65.2745C158.404 65.2867 158.26 65.3272 158.002 65.384C157.744 65.4408 157.368 65.5219 156.903 65.6071C155.972 65.7815 154.679 65.9884 153.245 66.1466C151.808 66.3088 150.501 66.3899 149.554 66.4264C149.08 66.4427 148.696 66.4548 148.434 66.4508C148.171 66.4508 148.023 66.4467 148.023 66.4345Z" fill="#E0E0E0"/>
<path d="M142.645 58.6875C142.658 58.6794 142.742 58.7808 142.89 58.9673C143.038 59.1539 143.245 59.4297 143.499 59.7704C144.007 60.4519 144.7 61.405 145.453 62.4596C146.205 63.5142 146.882 64.4795 147.359 65.1812C147.6 65.5301 147.791 65.818 147.918 66.0168C148.044 66.2155 148.112 66.3291 148.099 66.3372C148.087 66.3453 148.002 66.2439 147.854 66.0573C147.706 65.8708 147.499 65.595 147.245 65.2542C146.738 64.5728 146.044 63.6196 145.292 62.5651C144.539 61.5105 143.863 60.5492 143.385 59.8475C143.144 59.4987 142.954 59.2107 142.827 59.012C142.7 58.8091 142.637 58.6956 142.645 58.6875Z" fill="#E0E0E0"/>
<path d="M135.787 69.1442C135.8 69.136 135.905 69.2658 136.095 69.5051C136.303 69.7769 136.565 70.1217 136.882 70.5313C137.537 71.4034 138.434 72.6162 139.415 73.9587C140.396 75.3053 141.271 76.5262 141.901 77.4185C142.197 77.8444 142.442 78.1973 142.636 78.4772C142.806 78.7287 142.894 78.8747 142.886 78.8787C142.873 78.8868 142.768 78.757 142.577 78.5177C142.37 78.246 142.108 77.9012 141.791 77.4916C141.135 76.6195 140.239 75.4067 139.258 74.0642C138.277 72.7216 137.402 71.4967 136.772 70.6043C136.476 70.1785 136.231 69.8256 136.036 69.5457C135.863 69.2942 135.774 69.1523 135.787 69.1442Z" fill="#E0E0E0"/>
<path d="M142.78 78.6067C142.78 78.5945 142.962 78.5661 143.296 78.5296C143.664 78.4891 144.142 78.4363 144.708 78.3755C145.901 78.2457 147.545 78.0591 149.359 77.8077C151.173 77.5562 152.805 77.2925 153.985 77.0897C154.547 76.9964 155.017 76.9153 155.384 76.8545C155.714 76.8017 155.9 76.7774 155.904 76.7896C155.909 76.8017 155.727 76.8504 155.401 76.9234C155.076 77.0005 154.602 77.1019 154.01 77.2155C152.835 77.4467 151.199 77.7346 149.385 77.9861C147.571 78.2376 145.918 78.4039 144.721 78.5012C144.121 78.5499 143.639 78.5824 143.3 78.5986C142.966 78.6148 142.78 78.6189 142.78 78.6067Z" fill="#E0E0E0"/>
<path d="M288.668 94.0725C288.668 85.2992 280.402 78.3755 270.931 80.079C264.974 81.1499 260.23 85.8184 259.185 91.5456C258.534 95.1271 259.304 98.4936 261.004 101.272H260.995L261.037 101.325C261.608 102.245 262.323 102.903 263.042 103.872L271.667 114.831C272.741 116.194 274.876 116.194 275.95 114.831L284.432 104.05C284.432 104.05 286.013 102.237 286.588 101.309L286.618 101.268H286.613C287.916 99.1588 288.668 96.7008 288.668 94.0725ZM273.815 100.278C270.204 100.278 267.278 97.4715 267.278 94.0076C267.278 90.5437 270.204 87.7369 273.815 87.7369C277.426 87.7369 280.352 90.5437 280.352 94.0076C280.352 97.4674 277.426 100.278 273.815 100.278Z" fill="#F5F5F5"/>
<path d="M218.528 30.7045V47.4642C218.528 47.8252 218.832 48.1173 219.209 48.1173H255.841C256.222 48.1173 256.526 47.8212 256.522 47.4561L256.438 41.3193C256.438 41.1814 256.387 41.0475 256.302 40.938L251.047 34.2009C250.92 34.0386 250.721 33.9413 250.506 33.9372L244.451 33.8926C244.079 33.8886 243.774 33.5965 243.774 33.2396V30.7045C243.774 30.3436 243.47 30.0515 243.094 30.0515H219.205C218.832 30.0515 218.528 30.3436 218.528 30.7045Z" fill="#F5F5F5"/>
<path d="M245.482 35.3529V40.7312C245.482 40.9421 245.66 41.1084 245.88 41.1044L253.968 40.9665C254.277 40.9624 254.459 40.6298 254.285 40.3824L250.505 35.0324C250.429 34.927 250.307 34.8661 250.171 34.8702L245.867 34.9797C245.652 34.9838 245.482 35.1501 245.482 35.3529Z" fill="#EBEBEB"/>
<path d="M257.249 48.6283H217.788V49.7964H257.249V48.6283Z" fill="#F5F5F5"/>
<path d="M229.694 51.7223C231.218 50.2603 231.218 47.8899 229.694 46.4279C228.17 44.9658 225.699 44.9659 224.175 46.4279C222.651 47.8899 222.651 50.2603 224.175 51.7223C225.699 53.1843 228.17 53.1843 229.694 51.7223Z" fill="#EBEBEB"/>
<path d="M229.233 49.0745C229.233 50.2913 228.206 51.277 226.937 51.277C225.669 51.277 224.642 50.2913 224.642 49.0745C224.642 47.8577 225.669 46.8721 226.937 46.8721C228.206 46.8721 229.233 47.8577 229.233 49.0745Z" fill="#FAFAFA"/>
<path d="M243.749 48.1173C243.652 48.1173 243.571 44.0734 243.571 39.0844C243.571 34.0954 243.652 30.0515 243.749 30.0515C243.846 30.0515 243.926 34.0954 243.926 39.0844C243.926 44.0734 243.846 48.1173 243.749 48.1173Z" fill="#EBEBEB"/>
<path d="M250.963 51.724C252.487 50.262 252.487 47.8916 250.963 46.4296C249.439 44.9676 246.968 44.9675 245.444 46.4296C243.92 47.8916 243.92 50.262 245.444 51.724C246.968 53.186 249.439 53.186 250.963 51.724Z" fill="#EBEBEB"/>
<path d="M250.505 49.0745C250.505 50.2913 249.478 51.277 248.209 51.277C246.941 51.277 245.914 50.2913 245.914 49.0745C245.914 47.8577 246.941 46.8721 248.209 46.8721C249.474 46.8721 250.505 47.8577 250.505 49.0745Z" fill="#FAFAFA"/>
<path d="M248.218 42.1669C248.218 42.2602 247.66 42.3373 246.97 42.3373C246.281 42.3373 245.723 42.2602 245.723 42.1669C245.723 42.0736 246.281 41.9966 246.97 41.9966C247.655 41.9966 248.218 42.0736 248.218 42.1669Z" fill="#EBEBEB"/>
<path d="M296 167.139C296 167.195 229.732 167.244 148.006 167.244C66.2551 167.244 0 167.2 0 167.139C0 167.082 66.2551 167.033 148.006 167.033C229.732 167.033 296 167.082 296 167.139Z" fill="black"/>
<path d="M59.1094 165.354C64.8047 161.566 66.1197 154.5 65.9209 148.144C65.8871 147.081 66.0139 145.966 65.4897 145.033C64.9654 144.1 63.7434 143.459 62.7498 143.906C61.9253 144.275 61.5659 145.187 61.1051 145.946C60.492 146.952 59.5745 147.783 58.5048 148.314C57.7987 148.663 56.9277 148.874 56.2342 148.505C55.2829 147.998 55.173 146.733 55.1857 145.678C55.2068 143.711 55.2237 141.744 55.2449 139.781C55.2575 138.726 55.2618 137.647 54.9235 136.645C54.5853 135.643 53.8327 134.71 52.7883 134.427C51.7439 134.143 50.4459 134.714 50.2218 135.749C50.1288 136.179 50.2176 136.625 50.1838 137.063C50.1499 137.501 49.9385 137.984 49.503 138.105C49.0633 138.227 48.6236 137.927 48.298 137.619C47.1649 136.548 46.3996 135.173 45.685 133.806C44.9705 132.439 44.277 131.04 43.2496 129.876C42.2222 128.712 40.8015 127.783 39.2286 127.693C37.6515 127.604 35.973 128.529 35.5671 130.014C35.1611 131.498 36.0617 133.011 37.0427 134.22C38.4972 136.012 40.218 137.598 42.1376 138.913C42.4843 139.148 42.8564 139.407 42.9875 139.797C43.2242 140.503 42.5266 141.196 41.8036 141.427C40.9833 141.687 40.0954 141.602 39.2371 141.695C38.3788 141.788 37.4486 142.149 37.123 142.924C36.6706 143.999 37.605 145.135 38.5268 145.877C40.3745 147.365 42.4843 148.546 44.7379 149.345C45.5455 149.633 46.3953 149.884 47.0465 150.432C47.6976 150.979 48.0866 151.928 47.6892 152.671C47.2917 153.413 46.2812 153.648 45.4313 153.494C44.5857 153.34 43.8289 152.898 43.0213 152.602C41.5118 152.05 39.5584 152.143 38.5859 153.393C37.9475 154.216 37.8883 155.36 38.2054 156.346C38.5225 157.327 39.1737 158.175 39.8628 158.958C42.2771 161.691 45.3679 163.898 48.873 165.074C52.3739 166.238 55.6212 166.563 59.1094 165.354Z" fill="#054F31"/>
<path d="M58.7332 167.143C58.5007 164.624 58.3823 164.571 57.414 161.363C56.45 158.15 55.0886 154.719 53.5411 151.17C53.1478 150.286 52.7631 149.41 52.3825 148.55C52.002 147.69 51.6215 146.838 51.1944 146.027C50.353 144.4 49.4144 142.896 48.4757 141.496C47.5371 140.097 46.5942 138.799 45.7063 137.594C44.8142 136.39 43.9558 135.282 43.1314 134.305C41.4866 132.342 39.9729 130.914 38.8863 129.973C38.3451 129.502 37.9138 129.15 37.6178 128.91C37.4741 128.797 37.3642 128.711 37.2796 128.643C37.2035 128.586 37.1612 128.553 37.1612 128.557C37.157 128.561 37.195 128.594 37.2669 128.659C37.3472 128.728 37.4572 128.821 37.5925 128.939C37.88 129.182 38.3028 129.547 38.8356 130.026C39.901 130.983 41.3978 132.423 43.0214 134.39C43.8375 135.372 44.6831 136.479 45.5668 137.688C46.4504 138.896 47.3891 140.194 48.3193 141.594C49.2495 142.993 50.1797 144.494 51.0169 146.112C51.4397 146.919 51.8117 147.767 52.1965 148.627C52.577 149.487 52.9618 150.363 53.355 151.247C54.9067 154.792 56.2682 158.215 57.2365 161.412C58.2132 164.608 58.3442 164.644 58.5895 167.151" fill="black"/>
<path d="M51.1352 146.019C51.1479 146.023 51.1859 145.861 51.2451 145.569C51.3043 145.277 51.3762 144.855 51.4523 144.327C51.613 143.277 51.7821 141.821 51.9597 140.215C52.1373 138.608 52.3275 137.156 52.5051 136.11C52.5897 135.587 52.6658 135.165 52.7208 134.873C52.7757 134.581 52.7969 134.418 52.7842 134.414C52.7715 134.41 52.7208 134.569 52.6446 134.856C52.5643 135.144 52.4713 135.562 52.3656 136.085C52.1542 137.128 51.9385 138.584 51.761 140.19C51.5876 141.776 51.4312 143.212 51.3128 144.307C51.2536 144.802 51.2071 145.22 51.169 145.556C51.1352 145.852 51.1225 146.019 51.1352 146.019Z" fill="black"/>
<path d="M37.0049 143.435C37.0049 143.447 37.2036 143.472 37.5672 143.5C37.9308 143.532 38.4551 143.577 39.102 143.65C40.3959 143.788 42.1801 144.039 44.1293 144.4C46.0827 144.765 47.8332 145.163 49.0932 145.491C49.7232 145.65 50.2305 145.792 50.5815 145.885C50.9324 145.982 51.1269 146.031 51.1311 146.015C51.1354 146.003 50.9493 145.93 50.6026 145.812C50.2601 145.694 49.757 145.532 49.127 145.358C47.8755 144.997 46.1208 144.575 44.1631 144.21C42.2055 143.849 40.4128 143.618 39.1105 143.516C38.4594 143.459 37.9308 143.435 37.5672 143.427C37.2078 143.419 37.0049 143.423 37.0049 143.435Z" fill="black"/>
<path d="M57.2408 161.115C57.2492 161.119 57.2788 161.063 57.338 160.949C57.4057 160.815 57.486 160.653 57.5832 160.458C57.7947 160.032 58.0779 159.408 58.4246 158.633C59.1138 157.08 59.9933 154.91 60.9277 152.5C61.8664 150.091 62.7247 147.913 63.3758 146.351C63.6971 145.593 63.9593 144.968 64.1538 144.502C64.2384 144.299 64.306 144.133 64.361 143.999C64.4075 143.881 64.4286 143.82 64.4202 143.816C64.4117 143.812 64.3821 143.869 64.3229 143.983C64.2553 144.116 64.1749 144.275 64.0777 144.473C63.8663 144.899 63.583 145.524 63.2363 146.299C62.5471 147.852 61.6676 150.022 60.729 152.431C59.7903 154.841 58.932 157.019 58.2809 158.58C57.9595 159.339 57.6974 159.963 57.5029 160.43C57.4183 160.633 57.3507 160.799 57.2957 160.933C57.2577 161.05 57.2365 161.111 57.2408 161.115Z" fill="black"/>
<path d="M38.4719 155.242C38.4719 155.25 38.5353 155.275 38.658 155.315C38.8059 155.364 38.9835 155.421 39.2034 155.494C39.7065 155.652 40.3873 155.867 41.2118 156.126C42.9073 156.662 45.2454 157.424 47.8246 158.272C50.4038 159.12 52.7504 159.862 54.4586 160.365C55.3126 160.616 56.0061 160.811 56.4881 160.937C56.7122 160.994 56.894 161.042 57.0462 161.079C57.173 161.107 57.2407 161.123 57.2449 161.115C57.2449 161.107 57.1815 161.083 57.0589 161.042C56.9109 160.994 56.7333 160.937 56.5134 160.864C56.0103 160.706 55.3296 160.491 54.5051 160.231C52.8096 159.696 50.4714 158.933 47.8922 158.085C45.3131 157.238 42.9707 156.496 41.2583 155.993C40.4042 155.741 39.7108 155.546 39.2288 155.421C39.0047 155.364 38.8229 155.315 38.6706 155.279C38.5396 155.246 38.4719 155.234 38.4719 155.242Z" fill="black"/>
<path d="M127.766 167.139H68.923C61.8112 167.106 55.803 161.29 55.8326 154.472L56.4584 12.3022C56.488 5.47584 62.2806 -0.0323059 69.3965 0.000142633L128.51 0.263787C135.622 0.296236 141.36 5.849 141.326 12.6673L140.7 154.837C140.67 161.663 134.878 167.171 127.766 167.139Z" fill="black"/>
<path d="M128.426 5.66604L116.963 5.61737C115.428 5.60926 114.173 6.85447 114.168 8.39578L114.16 10.3873C114.152 11.9286 112.9 13.1738 111.365 13.1657L89.0237 13.0684C87.4889 13.0603 86.2458 11.8069 86.2542 10.2656L86.2627 8.27004C86.2712 6.72873 85.0281 5.47135 83.4933 5.46729L79.4638 5.45107L69.4304 5.40645C64.4497 5.38617 60.3907 9.2435 60.3695 14.0215L59.7564 152.792C59.7353 157.57 63.752 161.46 68.7328 161.48L127.728 161.74C132.709 161.76 136.768 157.903 136.789 153.125L137.402 14.3541C137.423 9.57609 133.407 5.68632 128.426 5.66604Z" fill="#F5F5F5"/>
<path d="M103.387 135.513C103.319 137.189 103.256 138.762 103.201 140.068H111.674L110.638 135.075L103.387 135.513Z" fill="#F5F5F5"/>
<path d="M68.9485 137.602L69.0204 140.064H102.359C102.414 138.681 102.478 137.144 102.541 135.562L68.9485 137.602Z" fill="#F5F5F5"/>
<path d="M111.065 135.047L112.109 140.068H127.732L127.546 134.049L111.065 135.047Z" fill="#F5F5F5"/>
<path d="M104.236 64.8811L107.187 48.4499L99.45 47.8983V64.8811H104.236Z" fill="#F5F5F5"/>
<path d="M68.2508 128.48L59.8537 131.636L59.8284 137.343L68.5003 136.815L68.2508 128.48Z" fill="#F5F5F5"/>
<path d="M68.2125 127.199L67.7516 111.895H67.7474V106.496L59.9591 107.287L59.8577 130.33L68.2083 127.19L68.2125 127.199Z" fill="#F5F5F5"/>
<path d="M67.7476 94.4498L60.0186 93.4723L59.9636 106.066L67.7476 105.275V94.4498Z" fill="#F5F5F5"/>
<path d="M125.327 106.723L125.001 111.112L115.877 112.053L116.583 115.525L126.942 114.775L126.785 109.798L127.614 106.504L125.327 106.723Z" fill="#F5F5F5"/>
<path d="M108.883 116.081L116.16 115.558L114.574 107.766L108.224 108.382L108.883 116.081Z" fill="#F5F5F5"/>
<path d="M108.951 116.892L109.509 123.386L110.494 132.293L110.9 134.244L127.521 133.238L126.967 115.586L108.951 116.892Z" fill="#F5F5F5"/>
<path d="M80.3474 86.224L80.9859 87.2745L68.1703 94.4457V111.457L81.6962 110.54L107.767 108.017L106.811 96.8671L81.9034 93.744L82.0683 92.5393L106.706 95.626L105.091 76.7531L80.7068 79.0042L80.6265 78.197L105.023 75.9459L104.181 66.0978H80.7237L60.1242 69.6955L60.0227 92.2473L67.8236 93.2329L80.3474 86.224ZM69.4811 109.834C69.4811 109.834 69.5783 95.8085 69.4811 95.2812L79.9415 89.9434L81.2987 109.116L69.4811 109.834Z" fill="#F5F5F5"/>
<path d="M124.472 106.808L114.997 107.725L115.716 111.254L124.21 110.378L124.472 106.808Z" fill="#F5F5F5"/>
<path d="M103.509 132.508C103.48 133.246 103.45 133.976 103.42 134.698L110.473 134.268L110.109 132.524L103.509 132.508Z" fill="#F5F5F5"/>
<path d="M88.3172 64.881L89.5603 59.4783H99.0271V47.8699L69.4216 45.7648V56.6634L60.1747 58.6712L60.1282 68.4544L80.6093 64.881H88.3172Z" fill="#F5F5F5"/>
<path d="M108.072 32.5825L107.818 31.5888L119.124 27.2975L111.771 13.1377C111.64 13.158 111.505 13.1702 111.365 13.1702L98.8711 13.1134L99.2093 32.9314L108.072 32.5825Z" fill="#F5F5F5"/>
<path d="M125.208 24.9855L125.195 5.65019L116.967 5.61369C115.433 5.60557 114.177 6.85079 114.173 8.3921L114.16 10.3877C114.156 11.3409 113.678 12.1764 112.951 12.6753L120.308 26.8472L125.208 24.9855Z" fill="#F5F5F5"/>
<path d="M82.7068 25.817L81.7554 5.45959L79.4638 5.44742L70.5212 5.40686L66.7117 23.6146L82.7068 25.817ZM80.6646 7.52007L80.969 24.1013L69.0837 22.4342L71.6882 7.52413L80.6646 7.52007Z" fill="#F5F5F5"/>
<path d="M83.1382 25.8777L83.1424 26.0521C83.1635 27.6421 83.1974 30.5016 83.2227 33.5599L98.795 32.9515L98.4568 13.1132L89.0322 13.0727C87.4974 13.0646 86.2543 11.8112 86.2628 10.2699L86.2712 8.27433C86.2797 6.73302 85.0366 5.47564 83.5018 5.47159L82.1826 5.46753L83.1382 25.8817V25.8777Z" fill="#F5F5F5"/>
<path d="M65.4516 23.4401L69.2231 5.41089C64.3354 5.49607 60.3905 9.30472 60.3694 14.0179L60.3313 23.0061L60.3694 22.7425L65.4516 23.4401Z" fill="#F5F5F5"/>
<path d="M68.1535 45.6754L60.2342 45.1116L60.1792 57.4218L68.1535 55.6898V45.6754Z" fill="#F5F5F5"/>
<path d="M65.3672 23.8376L60.3315 23.144L60.2427 43.0796L61.3251 43.1567L65.3672 23.8376Z" fill="#F5F5F5"/>
<path d="M81.3664 126.967L81.4975 110.962L68.1746 111.867L68.6439 127.543L81.3664 126.967Z" fill="#F5F5F5"/>
<path d="M83.8145 123.272L102.685 131.944C102.909 126.278 103.112 120.981 103.091 120.64L103.501 120.62L103.7 120.238C103.966 120.368 103.966 120.368 103.826 124.23C103.746 126.383 103.636 129.251 103.522 132.123H110.046L109.086 123.422L107.801 108.419L83.1465 110.804L83.8145 123.272Z" fill="#F5F5F5"/>
<path d="M130.066 96.7131L129.855 94.5999L107.239 96.8591L108.19 107.977L127.715 106.087L130.066 96.7131Z" fill="#F5F5F5"/>
<path d="M99.0276 60.6951H90.5797L89.6157 64.8809H99.0276V60.6951Z" fill="#F5F5F5"/>
<path d="M126.574 62.1066L105.412 60.7032L104.549 65.4975L105.441 75.9054L127.758 73.8449L126.574 62.1066ZM106.194 65.4894L107.331 62.4636L125.711 63.579L126.777 72.2387L106.82 74.5101L106.194 65.4894Z" fill="#F5F5F5"/>
<path d="M128.768 83.8594L127.842 74.6561L105.513 76.7126L106.351 86.512L128.768 83.8594Z" fill="#F5F5F5"/>
<path d="M68.5254 137.631L59.8619 138.154L59.8239 137.615L59.8154 140.068H68.5973L68.5254 137.631Z" fill="#F5F5F5"/>
<path d="M137.25 20.4144L137.377 20.7226L137.406 14.3505C137.427 9.57249 133.411 5.68677 128.43 5.66244L125.618 5.65027L125.631 24.8233L137.25 20.4144Z" fill="#F5F5F5"/>
<path d="M102.668 132.386L83.4085 123.536L82.7278 110.853L81.9202 110.93L81.7849 127.353L68.6565 127.949L68.6692 128.314L68.6734 128.322H68.6692L68.9229 136.791L102.575 134.751C102.604 133.964 102.634 133.173 102.668 132.386ZM69.481 128.995L87.8565 127.758L99.8095 133.08L69.481 134.654V128.995V128.995Z" fill="#F5F5F5"/>
<path d="M131.774 41.7128L132.561 37.2308C125.652 34.8661 125.174 27.9587 125.195 25.8657L120.688 27.5774L127.479 40.6501L131.774 41.7128Z" fill="#F5F5F5"/>
<path d="M107.133 95.6463L116.524 94.7094L114.672 86.7513L106.456 87.7248L107.133 95.6463Z" fill="#F5F5F5"/>
<path d="M126.608 48.5836H109.069L107.615 48.4781L105.632 59.4985L126.451 60.8776L125.969 56.0873L128.016 49.0136L126.608 48.5836Z" fill="#F5F5F5"/>
<path d="M126.181 46.5558L126.401 41.2951L119.509 28.0195L108.82 32.0756L112.494 46.5517H126.181V46.5558ZM119.09 29.6379L125.407 41.1653L124.494 44.7589L113.687 44.3696L110.985 33.4668L119.09 29.6379Z" fill="#F5F5F5"/>
<path d="M128.907 110.009L129.229 120.34L136.831 119.93L136.852 120.336L129.241 120.745L129.63 133.108L136.814 132.67L136.869 133.481L129.656 133.919L129.846 140.068H136.848L137 105.596L129.842 106.289L128.907 110.009Z" fill="#F5F5F5"/>
<path d="M82.7193 26.2266L66.627 24.012L62.6018 43.2459L82.787 44.6817C82.8716 41.7208 82.7997 32.6352 82.7193 26.2266Z" fill="#F5F5F5"/>
<path d="M109.188 46.5556H111.619L108.173 32.984L99.2178 33.3369L99.4334 45.8661L109.188 46.5556Z" fill="#F5F5F5"/>
<path d="M59.7745 149.941L59.7607 152.788C59.7607 152.878 59.7699 152.963 59.7745 153.048V149.941Z" fill="#F5F5F5"/>
<path d="M83.2014 44.7101L99.0105 45.8337L98.7948 33.3531L83.2183 33.9656C83.2522 38.1839 83.2691 42.6862 83.2014 44.7101Z" fill="#F5F5F5"/>
<path d="M128.891 85.0721L115.094 86.7027L116.946 94.6647L129.732 93.3911L128.891 85.0721Z" fill="#F5F5F5"/>
<path d="M132.633 36.8211L133.517 31.7915L137.326 32.0755L137.373 21.2417L125.623 25.7034C125.386 33.3247 130.379 36.0058 132.633 36.8211Z" fill="#F5F5F5"/>
<path d="M128.109 56.27L128.591 61.0196L137.195 61.5915L137.237 51.8042L130.032 49.6221L128.109 56.27Z" fill="#F5F5F5"/>
<path d="M132.206 96.855L129.944 105.872L137 105.19L137.043 95.7355C134.878 95.1879 132.988 94.7418 131.969 94.5552L132.206 96.855Z" fill="#F5F5F5"/>
<path d="M127.44 46.7097L137.25 49.6828L137.271 44.3329L127.639 41.9438L127.44 46.7097Z" fill="#F5F5F5"/>
<path d="M131.846 93.3139C132.637 93.4275 134.134 93.7317 137.047 94.4699L137.14 73.8002L129.944 74.4654L131.846 93.3139Z" fill="#F5F5F5"/>
<path d="M129.863 73.6542L137.144 72.9809L137.191 62.8123L128.713 62.2485L129.863 73.6542Z" fill="#F5F5F5"/>
<path d="M133.445 37.0807C134.823 37.4822 136.108 37.7945 137.296 38.0217L137.318 32.8907L134.218 32.6595L133.445 37.0807Z" fill="#F5F5F5"/>
<path d="M132.595 41.9155L137.276 43.0755L137.297 38.4354C136.087 38.2042 134.781 37.8878 133.373 37.4781L132.595 41.9155Z" fill="#F5F5F5"/>
<path d="M68.5256 137.631L68.5975 140.068H69.0203L68.9484 137.606L102.541 135.566C102.478 137.148 102.414 138.685 102.359 140.068H103.205C103.26 138.762 103.323 137.189 103.391 135.514L110.642 135.075L111.678 140.068H112.109L111.065 135.047L127.542 134.045L127.732 140.064H129.846L129.652 133.915L136.865 133.477L136.81 132.666L129.627 133.1L129.238 120.737L136.848 120.328L136.823 119.922L129.225 120.332L128.904 110.001L129.838 106.277L137 105.584V105.174L129.944 105.856L132.206 96.8389L131.973 94.535C132.988 94.7216 134.878 95.1678 137.047 95.7153L137.051 94.4498C134.138 93.7157 132.641 93.4115 131.851 93.2938L129.948 74.4412L137.144 73.776L137.148 72.9608L129.868 73.6341L128.718 62.2284L137.195 62.7922L137.199 61.5713L128.591 60.9994L128.113 56.2457L130.037 49.6019L137.241 51.784L137.25 49.6586L127.445 46.6896L127.644 41.9237L137.275 44.3127L137.28 43.0594L132.599 41.8994L133.377 37.4661C134.781 37.8758 136.087 38.1921 137.301 38.4233V38.0055C136.113 37.7784 134.827 37.4661 133.449 37.0645L134.227 32.6434L137.326 32.8746L137.33 32.0593L133.521 31.7754L132.637 36.805C130.383 35.9897 125.39 33.3086 125.627 25.6832L137.377 21.2215L137.381 20.7064L137.254 20.3981L125.635 24.8071L125.622 5.63404H125.2L125.212 24.9693L120.316 26.827L112.959 12.6551C112.612 12.8944 112.215 13.0526 111.78 13.1134L119.132 27.2732L107.826 31.5645L108.08 32.5582L99.2177 32.9071L98.8795 13.0891H98.4567L98.7949 32.9273L83.2226 33.5358C83.1973 30.4775 83.1634 27.6179 83.1423 26.028L83.1381 25.8536H83.1338L82.1783 5.43935H81.7555L82.7068 25.7968L66.7117 23.5943L70.5213 5.38662L69.4304 5.38257C69.3628 5.38257 69.2951 5.39068 69.2232 5.39068L65.4517 23.4199L60.3695 22.7182L60.3314 22.9819V23.1198L65.3714 23.8134L61.3293 43.1284L60.2427 43.0513L60.2342 45.0834L68.1535 45.6472V55.6657L60.1792 57.3976L60.175 58.6469L69.422 56.6391V45.7405L99.0275 47.8456V59.4541H89.5606L88.3176 64.8567H80.6096L60.1327 68.4301L60.1285 69.6672L80.728 66.0695H104.186L105.027 75.9176L80.6308 78.1688L80.7111 78.9759L105.095 76.7248L106.71 95.5977L82.0726 92.511L81.9077 93.7157L106.816 96.8389L107.771 107.989L81.7005 110.512L68.1747 111.429V94.4174L80.9902 87.2463L80.3517 86.1957L67.8279 93.2006L60.027 92.2149L60.0228 93.4399L67.7476 94.4174V105.243L59.9678 106.034L59.9636 107.259L67.7518 106.468V111.867H67.7561L68.2169 127.17L68.2127 127.162L59.8621 130.301L59.8579 131.612L68.255 128.456L68.5045 136.791L59.8325 137.318V137.59L59.8663 138.13L68.5256 137.631ZM103.421 134.698C103.45 133.976 103.48 133.246 103.509 132.508L110.114 132.524L110.477 134.268L103.421 134.698ZM110.9 134.244L110.494 132.293L109.509 123.386L108.951 116.892L126.967 115.59L127.521 133.238L110.9 134.244ZM114.997 107.725L124.472 106.809L124.206 110.378L115.712 111.258L114.997 107.725ZM114.574 107.766L116.16 115.554L108.883 116.081L108.224 108.378L114.574 107.766ZM126.942 114.775L116.583 115.525L115.877 112.053L125.001 111.108L125.327 106.723L127.61 106.5L126.785 109.798L126.942 114.775ZM114.672 86.7514L116.524 94.7054L107.133 95.6423L106.456 87.7208L114.672 86.7514ZM116.946 94.6648L115.094 86.7027L128.891 85.0722L129.732 93.3912L116.946 94.6648ZM126.451 60.8777L105.632 59.4946L107.615 48.4783L109.069 48.5838L126.608 48.5878L128.016 49.0137L125.965 56.0916L126.451 60.8777ZM125.195 25.8617C125.174 27.9546 125.652 34.8621 132.561 37.2268L131.774 41.7087L127.479 40.642L120.688 27.5693L125.195 25.8617ZM119.504 28.0236L126.396 41.2991L126.176 46.5598H112.49L108.816 32.0837L119.504 28.0236ZM108.173 32.9841L111.619 46.5557H109.183L99.4334 45.8622L99.2177 33.333L108.173 32.9841ZM98.7949 33.3532L99.0105 45.8338L83.2015 44.7102C83.2691 42.6863 83.2522 38.184 83.2226 33.9616L98.7949 33.3532ZM66.6272 24.0121L82.7195 26.2267C82.7998 32.6353 82.8717 41.7169 82.7914 44.6778L62.6062 43.2419L66.6272 24.0121ZM107.188 48.4499L104.232 64.8811H99.4503V47.8983L107.188 48.4499ZM90.5796 60.6952H99.0275V64.8811H89.6156L90.5796 60.6952ZM104.554 65.4976L105.416 60.7033L126.578 62.1067L127.762 73.849L105.446 75.9095L104.554 65.4976ZM127.842 74.6562L128.772 83.8635L106.355 86.5121L105.518 76.7167L127.842 74.6562ZM107.239 96.8591L129.855 94.604L130.066 96.7131L127.715 106.087L108.186 107.977L107.239 96.8591ZM109.086 123.422L110.05 132.119H103.526C103.64 129.251 103.75 126.383 103.831 124.225C103.97 120.364 103.97 120.364 103.704 120.234L103.505 120.616L103.095 120.636C103.112 120.972 102.913 126.274 102.689 131.94L83.8188 123.268L83.1508 110.804L107.805 108.419L109.086 123.422ZM81.4976 110.962L81.3665 126.967L68.6482 127.547L68.1789 111.871L81.4976 110.962ZM68.6694 128.322V128.314L68.6567 127.949L81.7851 127.353L81.9204 110.93L82.7279 110.853L83.4087 123.536L102.668 132.386C102.638 133.173 102.604 133.964 102.575 134.751L68.923 136.791L68.6694 128.322Z" fill="white"/>
<path d="M87.8567 127.758L69.4812 128.995V134.653L99.8097 133.076L87.8567 127.758Z" fill="#EBEBEB"/>
<path d="M125.707 63.579L107.327 62.4636L106.194 65.4895L106.816 74.5061L126.773 72.2347L125.707 63.579Z" fill="#EBEBEB"/>
<path d="M68.7369 161.476L127.732 161.736C132.713 161.756 136.772 157.899 136.793 153.121L136.852 140.064H129.846H127.732H112.109H111.678H103.205H102.359H69.0202H68.5973H59.8155L59.7732 149.937V153.044C59.8958 157.704 63.8491 161.452 68.7369 161.476Z" fill="#EBEBEB"/>
<path d="M80.973 24.1012L80.6644 7.52002H71.688L69.0835 22.4342L80.973 24.1012Z" fill="#EBEBEB"/>
<path d="M124.494 44.7588L125.407 41.1652L119.09 29.6378L110.98 33.4667L113.686 44.3695L124.494 44.7588Z" fill="#EBEBEB"/>
<path d="M69.4812 95.2853C69.5784 95.8085 69.4812 109.838 69.4812 109.838L81.2946 109.121L79.9374 89.9475L69.4812 95.2853Z" fill="#EBEBEB"/>
<path d="M108.883 106.675L108.262 97.9827L128.523 95.4841V96.9849L126.075 104.979L108.883 106.675Z" fill="#EBEBEB"/>
<path d="M93.8948 34.5863C93.8948 35.8923 92.7912 36.955 91.4255 36.955C90.0641 36.955 88.9563 35.8964 88.9563 34.5863C88.9563 33.2802 90.0598 32.2175 91.4255 32.2175C92.7912 32.2175 93.8948 33.2802 93.8948 34.5863Z" fill="#FEC54B"/>
<g opacity="0.6">
<path opacity="0.6" d="M93.8943 34.4849C93.9535 35.791 92.8965 36.8942 91.535 36.951C90.1735 37.0078 89.0235 35.9938 88.9643 34.6877C88.9051 33.3817 89.9621 32.2784 91.3236 32.2216C92.6851 32.1648 93.8351 33.1789 93.8943 34.4849Z" fill="white"/>
</g>
<path d="M91.4296 36.0789C92.3356 36.0789 93.0701 35.3743 93.0701 34.5052C93.0701 33.636 92.3356 32.9314 91.4296 32.9314C90.5236 32.9314 89.7891 33.636 89.7891 34.5052C89.7891 35.3743 90.5236 36.0789 91.4296 36.0789Z" fill="#FEC54B"/>
<path d="M129.576 129.154C129.576 129.713 129.102 130.164 128.523 130.164C127.944 130.164 127.47 129.709 127.47 129.154C127.47 128.594 127.944 128.144 128.523 128.144C129.102 128.144 129.576 128.594 129.576 129.154Z" fill="#FEC54B"/>
<path d="M127.889 128.825L127.635 123.155L109.822 123.986C109.357 124.01 108.892 123.913 108.477 123.71L83.2141 111.469C82.6306 111.185 82.2458 110.621 82.212 109.993L78.7745 46.0122C78.7576 45.704 78.8802 45.4079 79.1085 45.1929C79.3368 44.9779 79.6539 44.8684 79.9711 44.8887L90.7993 45.6594V34.3024H92.0678V45.8135C92.0678 46.1096 91.9367 46.3976 91.7126 46.5963C91.4843 46.7991 91.1799 46.9005 90.8712 46.8802L80.0514 46.1096L83.4804 109.924C83.4889 110.114 83.6073 110.289 83.7891 110.378L109.052 122.619C109.272 122.725 109.517 122.777 109.767 122.765L127.728 121.926C128.032 121.914 128.316 122.011 128.54 122.206C128.764 122.4 128.891 122.664 128.903 122.956L129.166 128.768L127.889 128.825Z" fill="#FEC54B"/>
<path d="M80.8378 76.8587C82.6032 76.8587 84.0343 75.4859 84.0343 73.7923C84.0343 72.0988 82.6032 70.726 80.8378 70.726C79.0725 70.726 77.6414 72.0988 77.6414 73.7923C77.6414 75.4859 79.0725 76.8587 80.8378 76.8587Z" fill="#FEC54B"/>
<path d="M80.8379 75.9217C82.0639 75.9217 83.0577 74.9683 83.0577 73.7923C83.0577 72.6162 82.0639 71.6628 80.8379 71.6628C79.612 71.6628 78.6182 72.6162 78.6182 73.7923C78.6182 74.9683 79.612 75.9217 80.8379 75.9217Z" fill="#FAFAFA"/>
<path d="M80.838 76.0759C79.5272 76.0759 78.4575 75.0538 78.4575 73.7924C78.4575 72.535 79.523 71.5088 80.838 71.5088C82.1487 71.5088 83.2184 72.5309 83.2184 73.7924C83.2184 75.0538 82.1487 76.0759 80.838 76.0759ZM80.838 71.817C79.7006 71.817 78.7746 72.7053 78.7746 73.7964C78.7746 74.8875 79.7006 75.7758 80.838 75.7758C81.9753 75.7758 82.9013 74.8875 82.9013 73.7964C82.9013 72.7013 81.9753 71.817 80.838 71.817Z" fill="#FEC54B"/>
<path d="M99.6698 60.9305H84.4485C83.7086 60.9305 83.1082 61.5065 83.1082 62.2163V67.5054C83.1082 68.2152 83.7086 68.7912 84.4485 68.7912H84.6261V70.0526L86.1482 68.7912H99.6698C100.41 68.7912 101.01 68.2152 101.01 67.5054V62.2163C101.01 61.5065 100.41 60.9305 99.6698 60.9305Z" fill="#FEC54B"/>
<g opacity="0.4">
<g opacity="0.4">
<path opacity="0.4" d="M99.6698 60.9305H84.4485C83.7086 60.9305 83.1082 61.5065 83.1082 62.2163V67.5054C83.1082 68.2152 83.7086 68.7912 84.4485 68.7912H84.6261V70.0526L86.1482 68.7912H99.6698C100.41 68.7912 101.01 68.2152 101.01 67.5054V62.2163C101.01 61.5065 100.41 60.9305 99.6698 60.9305Z" fill="white"/>
</g>
</g>
<path d="M86.5288 64.7753C86.5288 64.2926 86.9178 63.9316 87.4463 63.9316C87.9706 63.9316 88.3596 64.2886 88.3596 64.7753C88.3596 65.262 87.9706 65.619 87.4463 65.619C86.9178 65.619 86.5288 65.258 86.5288 64.7753ZM88.1144 64.7753C88.1144 64.4103 87.8311 64.1426 87.4463 64.1426C87.0616 64.1426 86.774 64.4103 86.774 64.7753C86.774 65.1404 87.0573 65.4081 87.4463 65.4081C87.8269 65.4121 88.1144 65.1404 88.1144 64.7753Z" fill="white"/>
<path d="M90.0508 64.9785C90.0508 65.3598 89.7717 65.6193 89.3912 65.6193C89.2009 65.6193 89.0318 65.5504 88.9261 65.4084V65.6072H88.6978V63.859H88.9345V64.5485C89.0445 64.4147 89.2051 64.3498 89.3912 64.3498C89.7717 64.3417 90.0508 64.5932 90.0508 64.9785ZM89.814 64.9785C89.814 64.7108 89.6237 64.5404 89.3743 64.5404C89.1248 64.5404 88.9388 64.7108 88.9388 64.9785C88.9388 65.2462 89.129 65.4206 89.3743 65.4206C89.6237 65.4165 89.814 65.2421 89.814 64.9785Z" fill="white"/>
<path d="M89.9282 65.9965L90.0043 65.8221C90.0508 65.8586 90.1185 65.8829 90.1946 65.8829C90.3214 65.8829 90.3891 65.8059 90.3891 65.6639V64.3538H90.6259V65.6598C90.6259 65.9154 90.4779 66.0736 90.2115 66.0736C90.1016 66.0736 89.9959 66.0492 89.9282 65.9965ZM90.3468 63.9644C90.3468 63.8833 90.4145 63.8143 90.5075 63.8143C90.6005 63.8143 90.6681 63.8792 90.6681 63.9563C90.6681 64.0415 90.6005 64.1064 90.5075 64.1064C90.4187 64.1104 90.3468 64.0496 90.3468 63.9644Z" fill="white"/>
<path d="M92.2496 65.0515H91.1926C91.2222 65.2705 91.4082 65.4166 91.6661 65.4166C91.8184 65.4166 91.9452 65.3679 92.0424 65.2665L92.1735 65.4125C92.0551 65.5464 91.8775 65.6153 91.6577 65.6153C91.2391 65.6153 90.9558 65.3476 90.9558 64.9745C90.9558 64.6054 91.2349 64.3376 91.6112 64.3376C91.9875 64.3376 92.2539 64.5972 92.2539 64.9826C92.2539 65.0028 92.2496 65.0312 92.2496 65.0515ZM91.1926 64.8893H92.0298C92.0044 64.6784 91.8395 64.5323 91.6112 64.5323C91.3829 64.5323 91.218 64.6784 91.1926 64.8893Z" fill="white"/>
<path d="M92.4609 64.9786C92.4609 64.6054 92.7485 64.3418 93.1501 64.3418C93.3827 64.3418 93.5772 64.4351 93.6829 64.6095L93.5053 64.719C93.4207 64.5973 93.2939 64.5405 93.1501 64.5405C92.8964 64.5405 92.7019 64.7109 92.7019 64.9786C92.7019 65.2504 92.8922 65.4207 93.1501 65.4207C93.2939 65.4207 93.4207 65.3639 93.5053 65.2422L93.6829 65.3518C93.5814 65.5262 93.3869 65.6195 93.1501 65.6195C92.7485 65.6154 92.4609 65.3518 92.4609 64.9786Z" fill="white"/>
<path d="M94.7312 65.53C94.6593 65.5909 94.5536 65.6152 94.4479 65.6152C94.1858 65.6152 94.0336 65.4773 94.0336 65.2258V64.5404H93.8137V64.3538H94.0336V64.082H94.2704V64.3538H94.6424V64.5404H94.2704V65.2177C94.2704 65.3516 94.3422 65.4286 94.4733 65.4286C94.541 65.4286 94.6086 65.4084 94.6594 65.3678L94.7312 65.53Z" fill="white"/>
<path d="M94.9768 63.9644C94.9768 63.8833 95.0445 63.8143 95.1375 63.8143C95.2263 63.8143 95.2981 63.8792 95.2981 63.9563C95.2981 64.0415 95.2305 64.1064 95.1375 64.1064C95.0445 64.1104 94.9768 64.0496 94.9768 63.9644ZM95.0191 64.3538H95.2559V65.6031H95.0191V64.3538Z" fill="white"/>
<path d="M96.8582 64.3539L96.2874 65.6032H96.0464L95.4756 64.3539H95.7208L96.169 65.3557L96.6256 64.3539H96.8582Z" fill="white"/>
<path d="M98.2157 65.0515H97.1587C97.1882 65.2705 97.3743 65.4166 97.6322 65.4166C97.7844 65.4166 97.9113 65.3679 98.0085 65.2665L98.1396 65.4125C98.0212 65.5464 97.8436 65.6153 97.6237 65.6153C97.2052 65.6153 96.9219 65.3476 96.9219 64.9745C96.9219 64.6054 97.2009 64.3376 97.5772 64.3376C97.9535 64.3376 98.2199 64.5972 98.2199 64.9826C98.2199 65.0028 98.2157 65.0312 98.2157 65.0515ZM97.1587 64.8893H97.9958C97.9705 64.6784 97.8056 64.5323 97.5772 64.5323C97.3489 64.5323 97.1798 64.6784 97.1587 64.8893Z" fill="white"/>
<path d="M94.6428 26.6324C94.6428 24.7626 92.8839 23.2902 90.8671 23.6512C89.5986 23.8783 88.5881 24.8721 88.364 26.093C88.2245 26.8555 88.3894 27.5734 88.753 28.1656L88.7615 28.1778C88.8841 28.3725 89.0363 28.5144 89.1885 28.7213L91.0277 31.0576C91.2561 31.3496 91.7127 31.3496 91.941 31.0576L93.7464 28.7619C93.7464 28.7619 94.0847 28.3765 94.2073 28.1778L94.2158 28.1697C94.4821 27.7154 94.6428 27.1922 94.6428 26.6324ZM91.4759 27.9547C90.7064 27.9547 90.0849 27.3584 90.0849 26.6202C90.0849 25.882 90.7064 25.2858 91.4759 25.2858C92.2455 25.2858 92.867 25.882 92.867 26.6202C92.867 27.3584 92.2455 27.9547 91.4759 27.9547Z" fill="#FEC54B"/>
<path d="M74.153 146.233H73.561V146.026H74.9859V146.233H74.394V147.677H74.1487V146.233H74.153Z" fill="black"/>
<path d="M74.9651 147.053C74.9651 146.68 75.2526 146.416 75.6416 146.416C76.0306 146.416 76.3181 146.68 76.3181 147.053C76.3181 147.426 76.0348 147.694 75.6416 147.694C75.2526 147.694 74.9651 147.426 74.9651 147.053ZM76.0813 147.053C76.0813 146.785 75.8953 146.615 75.6458 146.615C75.3964 146.615 75.2061 146.785 75.2061 147.053C75.2061 147.321 75.3964 147.495 75.6458 147.495C75.8911 147.495 76.0813 147.321 76.0813 147.053Z" fill="black"/>
<path d="M77.3792 147.605C77.3073 147.665 77.2016 147.694 77.0959 147.694C76.8337 147.694 76.6815 147.556 76.6815 147.3V146.615H76.4617V146.428H76.6815V146.157H76.9183V146.428H77.2904V146.615H76.9183V147.292C76.9183 147.426 76.9902 147.503 77.1213 147.503C77.1889 147.503 77.2566 147.483 77.3073 147.442L77.3792 147.605Z" fill="black"/>
<path d="M78.6942 146.923V147.678H78.4701V147.511C78.3897 147.625 78.246 147.69 78.043 147.69C77.7471 147.69 77.561 147.54 77.561 147.321C77.561 147.122 77.6963 146.956 78.0853 146.956H78.4574V146.911C78.4574 146.72 78.3432 146.611 78.1065 146.611C77.95 146.611 77.7936 146.664 77.6921 146.745L77.5949 146.574C77.7302 146.469 77.9247 146.412 78.1318 146.412C78.4955 146.416 78.6942 146.582 78.6942 146.923ZM78.4574 147.296V147.122H78.0938C77.8612 147.122 77.7936 147.207 77.7936 147.317C77.7936 147.442 77.9035 147.519 78.0811 147.519C78.2587 147.519 78.3982 147.442 78.4574 147.296Z" fill="black"/>
<path d="M79.1335 145.93H79.3703V147.678H79.1335V145.93Z" fill="black"/>
<path d="M81.709 145.929V147.678H81.4806V147.479C81.3749 147.621 81.21 147.69 81.0155 147.69C80.635 147.69 80.356 147.434 80.356 147.049C80.356 146.668 80.635 146.412 81.0155 146.412C81.2016 146.412 81.3623 146.477 81.4722 146.611V145.921H81.709V145.929ZM81.4764 147.053C81.4764 146.785 81.2861 146.615 81.0409 146.615C80.7915 146.615 80.6012 146.785 80.6012 147.053C80.6012 147.321 80.7915 147.495 81.0409 147.495C81.2861 147.495 81.4764 147.321 81.4764 147.053Z" fill="black"/>
<path d="M82.1147 146.043C82.1147 145.962 82.1824 145.893 82.2754 145.893C82.3642 145.893 82.4361 145.958 82.4361 146.039C82.4361 146.124 82.3684 146.189 82.2754 146.189C82.1824 146.189 82.1147 146.124 82.1147 146.043ZM82.157 146.428H82.3938V147.678H82.157V146.428Z" fill="black"/>
<path d="M82.677 147.548L82.7743 147.369C82.8842 147.446 83.0618 147.499 83.2309 147.499C83.4508 147.499 83.5395 147.434 83.5395 147.329C83.5395 147.049 82.7151 147.292 82.7151 146.793C82.7151 146.57 82.9222 146.42 83.2563 146.42C83.4254 146.42 83.6199 146.461 83.7298 146.534L83.6283 146.712C83.5099 146.639 83.3789 146.615 83.252 146.615C83.0449 146.615 82.9434 146.688 82.9434 146.785C82.9434 147.081 83.7679 146.838 83.7679 147.325C83.7679 147.552 83.5522 147.694 83.2055 147.694C82.9983 147.694 82.7869 147.629 82.677 147.548Z" fill="black"/>
<path d="M84.8081 147.605C84.7363 147.665 84.6306 147.694 84.5248 147.694C84.2627 147.694 84.1105 147.556 84.1105 147.3V146.615H83.8906V146.428H84.1105V146.157H84.3473V146.428H84.7193V146.615H84.3473V147.292C84.3473 147.426 84.4191 147.503 84.5502 147.503C84.6179 147.503 84.6855 147.483 84.7363 147.442L84.8081 147.605Z" fill="black"/>
<path d="M86.1231 146.923V147.678H85.899V147.511C85.8187 147.625 85.675 147.69 85.472 147.69C85.176 147.69 84.99 147.54 84.99 147.321C84.99 147.122 85.1253 146.956 85.5143 146.956H85.8864V146.911C85.8864 146.72 85.7722 146.611 85.5354 146.611C85.379 146.611 85.2225 146.664 85.1211 146.745L85.0238 146.574C85.1591 146.469 85.3536 146.412 85.5608 146.412C85.9202 146.416 86.1231 146.582 86.1231 146.923ZM85.8864 147.296V147.122H85.5227C85.2902 147.122 85.2225 147.207 85.2225 147.317C85.2225 147.442 85.3325 147.519 85.5101 147.519C85.6876 147.519 85.8272 147.442 85.8864 147.296Z" fill="black"/>
<path d="M87.7972 146.96V147.678H87.5604V146.984C87.5604 146.741 87.4336 146.619 87.2095 146.619C86.96 146.619 86.7951 146.761 86.7951 147.033V147.678H86.5583V146.428H86.7867V146.615C86.8839 146.489 87.0488 146.416 87.256 146.416C87.5731 146.416 87.7972 146.591 87.7972 146.96Z" fill="black"/>
<path d="M88.1228 147.053C88.1228 146.68 88.4103 146.416 88.812 146.416C89.0445 146.416 89.239 146.509 89.3447 146.684L89.1672 146.793C89.0826 146.672 88.9558 146.615 88.812 146.615C88.5583 146.615 88.3638 146.785 88.3638 147.053C88.3638 147.325 88.5541 147.495 88.812 147.495C88.9558 147.495 89.0826 147.438 89.1672 147.317L89.3447 147.426C89.2433 147.601 89.0488 147.694 88.812 147.694C88.4103 147.694 88.1228 147.426 88.1228 147.053Z" fill="black"/>
<path d="M90.7992 147.13H89.7421C89.7717 147.349 89.9578 147.495 90.2157 147.495C90.3679 147.495 90.4948 147.446 90.592 147.345L90.7231 147.491C90.6047 147.625 90.4271 147.694 90.2072 147.694C89.7887 147.694 89.5054 147.426 89.5054 147.053C89.5054 146.684 89.7844 146.416 90.1607 146.416C90.537 146.416 90.8034 146.676 90.8034 147.061C90.8034 147.081 90.7992 147.11 90.7992 147.13ZM89.7421 146.968H90.5793C90.5539 146.757 90.3891 146.611 90.1607 146.611C89.9324 146.607 89.7675 146.753 89.7421 146.968Z" fill="black"/>
<path d="M75.6966 149.531V153.47H74.7453V150.261H73.925V149.531H75.6966V149.531Z" fill="black"/>
<path d="M77.523 152.963C77.523 153.109 77.4976 153.214 77.3665 153.527L77.0325 154.338H76.4532L76.7112 153.445C76.5167 153.372 76.394 153.198 76.394 152.967C76.394 152.642 76.6393 152.427 76.9648 152.427C77.2862 152.423 77.523 152.642 77.523 152.963Z" fill="black"/>
<path d="M79.4383 149.531V153.47H78.487V150.261H77.6667V149.531H79.4383V149.531Z" fill="black"/>
<path d="M80.1528 151.498C80.1528 150.2 80.9054 149.462 81.9117 149.462C82.9265 149.462 83.6706 150.2 83.6706 151.498C83.6706 152.796 82.9265 153.535 81.9117 153.535C80.9054 153.535 80.1528 152.796 80.1528 151.498ZM82.7151 151.498C82.7151 150.602 82.3853 150.233 81.9117 150.233C81.4424 150.233 81.1126 150.606 81.1126 151.498C81.1126 152.395 81.4424 152.764 81.9117 152.764C82.3895 152.764 82.7151 152.395 82.7151 151.498Z" fill="black"/>
<path d="M84.1357 151.498C84.1357 150.2 84.8883 149.462 85.8946 149.462C86.9094 149.462 87.6536 150.2 87.6536 151.498C87.6536 152.796 86.9094 153.535 85.8946 153.535C84.8883 153.535 84.1357 152.796 84.1357 151.498ZM86.698 151.498C86.698 150.602 86.3682 150.233 85.8946 150.233C85.4253 150.233 85.0955 150.606 85.0955 151.498C85.0955 152.395 85.4253 152.764 85.8946 152.764C86.3724 152.764 86.698 152.395 86.698 151.498Z" fill="black"/>
<path d="M95.3022 151.734V153.466H94.389V151.868C94.389 151.377 94.1606 151.154 93.7928 151.154C93.3827 151.154 93.0951 151.405 93.0951 151.949V153.47H92.1819V151.872C92.1819 151.381 91.9662 151.158 91.5857 151.158C91.1798 151.158 90.8923 151.409 90.8923 151.953V153.474H89.979V150.448H90.8542V150.797C91.0868 150.537 91.4419 150.403 91.8436 150.403C92.2833 150.403 92.6596 150.566 92.8837 150.898C93.1374 150.59 93.5476 150.403 94.0211 150.403C94.761 150.395 95.3022 150.813 95.3022 151.734Z" fill="black"/>
<path d="M71.3994 149.998C71.8468 148.173 70.6672 146.346 68.7647 145.917C66.8621 145.488 64.9572 146.619 64.5098 148.444C64.0624 150.269 65.242 152.097 67.1445 152.526C69.0471 152.955 70.952 151.824 71.3994 149.998Z" fill="#FEC54B"/>
<path d="M66.5341 149.839C66.5341 149.819 66.8639 149.803 67.4431 149.787C68.0224 149.77 68.8469 149.758 69.8363 149.75L69.7644 149.9C69.4853 149.592 69.1809 149.251 68.8596 148.898L68.8004 148.833L68.8554 148.769C69.1386 148.428 69.4388 148.071 69.7475 147.698L69.8321 147.868C69.7052 147.868 69.5657 147.868 69.4304 147.868C68.386 147.864 67.4009 147.86 66.5299 147.856L66.6271 147.763C66.6187 148.793 66.606 149.661 66.5891 150.269C66.5722 150.878 66.551 151.231 66.5299 151.231C66.5087 151.231 66.4876 150.878 66.4707 150.269C66.4538 149.661 66.4411 148.793 66.4326 147.763V147.669H66.5341C67.4051 147.665 68.3903 147.661 69.4346 147.657C69.5741 147.657 69.7094 147.657 69.8363 147.657H70.0646L69.9208 147.828C69.608 148.197 69.3078 148.554 69.0202 148.89V148.76C69.3331 149.117 69.6333 149.462 69.9082 149.774L70.0435 149.929H69.8363C68.8469 149.921 68.0182 149.908 67.4431 149.892C66.8639 149.88 66.5341 149.86 66.5341 149.839Z" fill="#FAFAFA"/>
<path d="M125.221 143.427H114.519C113.39 143.427 112.473 144.307 112.473 145.39V153.47C112.473 154.553 113.39 155.433 114.519 155.433H114.79V157.36L117.12 155.433H125.221C126.35 155.433 127.267 154.553 127.267 153.47V145.39C127.267 144.307 126.35 143.427 125.221 143.427Z" fill="#FEC54B"/>
<path d="M115.538 147.134V151.279C115.538 151.369 115.614 151.442 115.707 151.442H124.764C124.857 151.442 124.933 151.369 124.933 151.279L124.912 149.762C124.912 149.73 124.899 149.693 124.878 149.669L123.58 148.002C123.551 147.962 123.5 147.937 123.445 147.937L121.948 147.925C121.855 147.925 121.779 147.852 121.779 147.763V147.138C121.779 147.049 121.703 146.976 121.61 146.976H115.703C115.614 146.972 115.538 147.045 115.538 147.134Z" fill="#FAFAFA"/>
<path d="M122.202 148.286V149.616C122.202 149.669 122.244 149.71 122.299 149.71L124.299 149.677C124.375 149.677 124.422 149.592 124.375 149.531L123.441 148.209C123.424 148.185 123.39 148.168 123.356 148.168L122.291 148.197C122.244 148.193 122.202 148.233 122.202 148.286Z" fill="#FEC54B"/>
<path d="M125.111 151.567H115.357V151.855H125.111V151.567Z" fill="#FAFAFA"/>
<path d="M118.583 151.677C118.583 152.188 118.151 152.602 117.619 152.602C117.086 152.602 116.655 152.188 116.655 151.677C116.655 151.166 117.086 150.752 117.619 150.752C118.151 150.752 118.583 151.166 118.583 151.677Z" fill="#FEC54B"/>
<path d="M118.19 151.677C118.19 151.977 117.936 152.22 117.623 152.22C117.31 152.22 117.056 151.977 117.056 151.677C117.056 151.377 117.31 151.133 117.623 151.133C117.932 151.133 118.19 151.377 118.19 151.677Z" fill="#FAFAFA"/>
<path d="M121.775 151.442C121.75 151.442 121.733 150.44 121.733 149.207C121.733 147.974 121.754 146.972 121.775 146.972C121.8 146.972 121.817 147.97 121.817 149.207C121.821 150.44 121.8 151.442 121.775 151.442Z" fill="#FEC54B"/>
<path d="M123.843 151.677C123.843 152.188 123.411 152.602 122.879 152.602C122.346 152.602 121.915 152.188 121.915 151.677C121.915 151.166 122.346 150.752 122.879 150.752C123.411 150.752 123.843 151.166 123.843 151.677Z" fill="#FEC54B"/>
<path d="M123.445 151.677C123.445 151.977 123.191 152.22 122.878 152.22C122.565 152.22 122.312 151.977 122.312 151.677C122.312 151.377 122.565 151.133 122.878 151.133C123.191 151.133 123.445 151.377 123.445 151.677Z" fill="#FAFAFA"/>
<path d="M122.879 149.969C122.879 149.994 122.739 150.01 122.57 150.01C122.401 150.01 122.261 149.989 122.261 149.969C122.261 149.945 122.401 149.929 122.57 149.929C122.743 149.925 122.879 149.945 122.879 149.969Z" fill="#FEC54B"/>
<path d="M223.783 81.9369C223.783 81.9369 230.603 83.0442 231.153 83.1821C231.703 83.3241 233.863 84.3056 233.973 84.9384C234.083 85.5711 233.973 87.4329 233.973 87.4329C233.973 87.4329 233.584 87.7371 233.339 87.1287C233.094 86.5203 233.132 85.3156 233.132 85.3156L231.923 84.8694L232.582 85.993L232.692 88.6254C232.692 88.6254 231.846 88.5523 231.686 87.9196C231.521 87.2909 231.525 86.5852 231.525 86.5852L230.641 85.8672L231.301 86.7231L231.525 88.6213C231.525 88.6213 230.882 88.82 230.68 88.3982C230.477 87.9764 230.46 86.7231 230.46 86.7231L227.973 85.8916L226.329 86.7717L223.255 85.1047L223.783 81.9369Z" fill="#FFBE9D"/>
<path d="M199.907 65.7653C199.937 65.8951 208.126 76.7085 208.126 76.7085L224.574 81.6164L223.826 87.5423L203.666 83.6485L196.512 75.7716L199.907 65.7653Z" fill="#FEC54B"/>
<g opacity="0.2">
<g opacity="0.2">
<path opacity="0.2" d="M199.907 65.7653C199.937 65.8951 208.126 76.7085 208.126 76.7085L224.574 81.6164L223.826 87.5423L203.666 83.6485L196.512 75.7716L199.907 65.7653Z" fill="black"/>
</g>
</g>
<path d="M171.257 86.9296H137.652C136.941 86.9296 136.362 86.378 136.362 85.6925V81.8838C136.362 81.2024 136.937 80.6467 137.652 80.6467H171.257C171.967 80.6467 172.547 81.1984 172.547 81.8838V85.6925C172.547 86.378 171.972 86.9296 171.257 86.9296Z" fill="#F5F5F5"/>
<path d="M171.257 86.9299C171.257 86.9218 171.329 86.9259 171.469 86.9015C171.604 86.8731 171.815 86.8204 172.031 86.6541C172.242 86.4959 172.462 86.2161 172.504 85.8348C172.521 85.4535 172.504 84.9992 172.504 84.4963C172.5 83.9893 172.5 83.4295 172.496 82.813C172.496 82.5048 172.492 82.1843 172.492 81.8517C172.483 81.5313 172.331 81.2068 172.056 80.9837C171.921 80.8702 171.756 80.789 171.578 80.7444C171.401 80.6957 171.211 80.7039 171.008 80.7039C170.606 80.7039 170.196 80.7079 169.773 80.7079C168.923 80.712 168.027 80.712 167.088 80.716C159.549 80.7241 149.144 80.7363 137.656 80.7485C137.326 80.7444 137.001 80.8864 136.785 81.1176C136.561 81.3528 136.455 81.6611 136.476 81.9896C136.476 82.6711 136.476 83.3484 136.476 84.0177C136.476 84.3543 136.476 84.6869 136.476 85.0195V85.5184C136.476 85.6888 136.476 85.8348 136.519 85.9849C136.599 86.2769 136.81 86.5324 137.085 86.6784C137.221 86.7515 137.373 86.7961 137.529 86.8123C137.677 86.8245 137.859 86.8164 138.028 86.8204C140.738 86.8245 143.351 86.8245 145.842 86.8285C150.818 86.8366 155.304 86.8448 159.076 86.8529C162.835 86.865 165.879 86.8772 167.997 86.8853C169.042 86.8934 169.858 86.9015 170.424 86.9056C170.695 86.9096 170.902 86.9137 171.054 86.9178C171.185 86.9218 171.257 86.9299 171.257 86.9299C171.257 86.9299 171.185 86.938 171.041 86.9421C170.889 86.9462 170.682 86.9462 170.412 86.9543C169.849 86.9583 169.033 86.9664 167.985 86.9745C165.87 86.9827 162.822 86.9948 159.063 87.007C155.296 87.0151 150.81 87.0192 145.829 87.0313C143.339 87.0313 140.726 87.0354 138.015 87.0394C137.842 87.0354 137.686 87.0476 137.495 87.0313C137.314 87.0111 137.132 86.9583 136.971 86.8731C136.646 86.7028 136.396 86.3986 136.299 86.0538C136.248 85.8835 136.248 85.6928 136.248 85.5346V85.0357C136.248 84.7031 136.248 84.3665 136.248 84.0339C136.248 83.3606 136.248 82.6873 136.248 82.0059C136.223 81.657 136.35 81.2595 136.612 80.9918C136.87 80.716 137.259 80.5497 137.648 80.5538C149.135 80.566 159.541 80.5781 167.08 80.5862C168.023 80.5903 168.919 80.5903 169.765 80.5943C170.187 80.5943 170.602 80.5984 170.999 80.5984C171.194 80.5984 171.405 80.5903 171.6 80.6471C171.794 80.6998 171.976 80.789 172.124 80.9148C172.424 81.1622 172.589 81.5191 172.593 81.8679C172.593 82.2005 172.593 82.521 172.589 82.8292C172.585 83.4417 172.581 84.0055 172.581 84.5125C172.572 85.0195 172.585 85.4616 172.559 85.8591C172.504 86.2607 172.272 86.5446 172.048 86.7068C171.819 86.8731 171.604 86.9178 171.464 86.9421C171.333 86.9421 171.257 86.9299 171.257 86.9299Z" fill="black"/>
<path d="M262.498 167.201C272.035 166.761 279.395 158.988 278.936 149.839C278.478 140.69 270.375 133.63 260.838 134.07C251.302 134.51 243.942 142.283 244.4 151.431C244.859 160.58 252.961 167.64 262.498 167.201Z" fill="black"/>
<path d="M244.391 150.367C244.391 150.383 244.387 150.395 244.387 150.411C244.247 159.57 251.875 167.102 261.422 167.232C270.969 167.366 278.821 160.049 278.956 150.89C278.956 150.874 278.956 150.862 278.956 150.845L244.391 150.367Z" fill="black"/>
<path d="M249.541 150.48C249.444 156.909 254.801 162.198 261.503 162.292C268.204 162.385 273.718 157.246 273.815 150.817C273.912 144.388 268.555 139.099 261.853 139.006C255.148 138.917 249.638 144.052 249.541 150.48Z" fill="#FAFAFA"/>
<path d="M261.849 139.006C255.147 138.912 249.634 144.052 249.537 150.48L273.81 150.817C273.908 144.388 268.555 139.099 261.849 139.006Z" fill="#E0E0E0"/>
<path d="M254.285 150.549C254.226 154.468 257.49 157.688 261.57 157.745C265.654 157.802 269.012 154.67 269.071 150.756C269.13 146.838 265.866 143.618 261.786 143.561C257.701 143.5 254.34 146.631 254.285 150.549Z" fill="black"/>
<path d="M253.469 126.331C253.469 126.331 271.168 121.196 278.491 139.643L241.453 150.647L253.469 126.331Z" fill="#FEC54B"/>
<path d="M155.831 167.204C165.368 166.764 172.728 158.991 172.27 149.842C171.811 140.694 163.709 133.633 154.172 134.073C144.635 134.513 137.275 142.286 137.733 151.435C138.192 160.583 146.295 167.644 155.831 167.204Z" fill="black"/>
<path d="M137.723 150.367C137.723 150.383 137.719 150.395 137.719 150.412C137.58 159.57 145.207 167.102 154.754 167.232C164.302 167.366 172.153 160.049 172.289 150.89C172.289 150.874 172.289 150.862 172.289 150.846L137.723 150.367Z" fill="black"/>
<path d="M142.869 150.48C142.772 156.909 148.129 162.198 154.831 162.292C161.532 162.385 167.046 157.246 167.143 150.817C167.24 144.388 161.883 139.099 155.182 139.006C148.476 138.917 142.966 144.052 142.869 150.48Z" fill="#FAFAFA"/>
<path d="M155.182 139.006C148.48 138.912 142.966 144.052 142.869 150.48L167.143 150.817C167.24 144.388 161.883 139.099 155.182 139.006Z" fill="#E0E0E0"/>
<path d="M147.613 150.549C147.554 154.468 150.818 157.688 154.898 157.745C158.983 157.802 162.34 154.67 162.399 150.756C162.458 146.838 159.194 143.618 155.114 143.561C151.029 143.5 147.672 146.631 147.613 150.549Z" fill="black"/>
<path d="M179.595 143.991C179.498 144.039 170.496 142.656 170.496 142.656C169.511 143.889 168.006 144.644 166.39 144.717C162.501 144.895 158.699 145.062 155.406 145.2C152.336 145.329 149.956 147.824 150.082 150.769V150.773C150.205 153.559 152.535 155.786 155.44 155.895L174.585 156.617C177.735 156.735 181.916 154.902 183.882 152.537L179.595 143.991Z" fill="black"/>
<path d="M132.561 136.653C132.561 136.653 131.736 120.49 147.571 117.123V115.051H203.04V119.991C203.04 119.991 194.896 129.397 197.556 137.205C200.215 145.017 201.044 145.812 201.044 145.812H232.612C232.612 145.812 236.434 141.188 236.599 134.337C236.764 127.482 233.795 115.765 231.58 108.273C229.563 101.463 228.29 95.764 228.29 95.764L237.761 92.7341C237.761 92.7341 255.287 114.714 256.002 115.951C256.716 117.188 259.152 120.072 258.577 126.387C258.006 132.707 242.256 152.208 238.104 154.403C233.952 156.601 230.231 156.739 226.506 157.287C223.276 157.765 199.374 157.449 193.125 157.355C190.952 157.323 188.808 156.792 186.952 155.713C185.083 154.626 183.675 152.825 182.123 149.872L178.829 143.691L132.561 136.653Z" fill="#FEC54B"/>
<path d="M136.806 135.53L129.817 146.027C128.921 147.369 130.371 149.061 131.893 148.428C132.633 148.12 133.428 147.641 134.235 146.903C137.432 143.987 143.127 136.304 143.127 136.304L136.806 135.53Z" fill="black"/>
<path d="M186.905 137.42C186.901 137.42 186.914 137.367 186.948 137.266C186.982 137.156 187.028 137.01 187.087 136.824C187.206 136.434 187.349 135.854 187.455 135.092C187.633 133.579 187.552 131.271 186.373 128.756C185.798 127.503 184.948 126.221 183.798 125.045C182.643 123.877 181.219 122.798 179.553 121.938C177.895 121.074 176.018 120.393 174.014 119.959C172.005 119.525 169.87 119.33 167.684 119.33C165.498 119.33 163.367 119.517 161.321 119.776C159.274 120.04 157.313 120.364 155.461 120.77C151.761 121.569 148.543 122.749 146.053 124.108C143.554 125.459 141.783 126.935 140.675 128.042C140.117 128.594 139.715 129.052 139.449 129.369C139.322 129.519 139.225 129.64 139.149 129.73C139.081 129.811 139.043 129.851 139.039 129.847C139.039 129.847 139.512 129.117 140.611 127.986C141.702 126.854 143.47 125.353 145.973 123.978C148.467 122.591 151.702 121.39 155.414 120.579C157.27 120.17 159.236 119.837 161.291 119.569C163.342 119.306 165.486 119.115 167.684 119.115C169.883 119.115 172.035 119.314 174.06 119.752C176.086 120.19 177.976 120.879 179.65 121.76C181.329 122.632 182.77 123.731 183.933 124.919C185.092 126.116 185.946 127.418 186.516 128.691C187.688 131.243 187.747 133.579 187.54 135.096C187.421 135.863 187.265 136.447 187.13 136.832C187.062 137.014 187.007 137.16 186.969 137.266C186.931 137.371 186.91 137.42 186.905 137.42Z" fill="black"/>
<path d="M183.709 133.79C183.684 133.782 183.802 133.534 183.916 133.072C184.047 132.609 184.102 131.908 183.98 131.064C183.857 130.216 183.519 129.239 182.948 128.245C182.669 127.746 182.326 127.251 181.925 126.769C181.531 126.282 181.071 125.82 180.551 125.402C179.506 124.562 178.348 123.97 177.253 123.552C176.149 123.143 175.109 122.899 174.225 122.757C173.342 122.615 172.614 122.554 172.115 122.526C171.612 122.498 171.337 122.486 171.337 122.469C171.337 122.461 171.405 122.457 171.54 122.449C171.671 122.445 171.87 122.437 172.12 122.441C172.623 122.445 173.354 122.481 174.251 122.607C175.147 122.729 176.204 122.96 177.329 123.366C178.445 123.783 179.629 124.38 180.694 125.236C181.227 125.666 181.696 126.136 182.098 126.635C182.504 127.126 182.851 127.637 183.13 128.148C183.701 129.162 184.03 130.168 184.136 131.04C184.242 131.908 184.161 132.626 184.001 133.088C183.95 133.327 183.844 133.494 183.798 133.615C183.747 133.733 183.717 133.794 183.709 133.79Z" fill="#F5F5F5"/>
<g opacity="0.4">
<g opacity="0.4">
<g opacity="0.4">
<path opacity="0.4" d="M172.847 119.63C175.946 120.198 178.656 121.265 181.198 122.891C183.739 124.518 185.688 126.825 186.791 129.559C187.899 132.293 187.734 135.915 186.567 138.178L190.487 138.491C191.806 134.268 190.368 129.089 187.197 125.783C183.481 121.905 178.365 119.63 172.847 119.63Z" fill="black"/>
</g>
</g>
</g>
<path d="M171.599 115.051H137.313C135.309 115.051 133.686 113.493 133.686 111.571V90.0936C133.686 88.1711 135.309 86.6135 137.313 86.6135H171.599C173.604 86.6135 175.227 88.1711 175.227 90.0936V111.571C175.227 113.493 173.604 115.051 171.599 115.051Z" fill="black"/>
<path d="M175.227 92.9574C175.227 93.0142 165.887 93.0628 154.37 93.0628C142.848 93.0628 133.508 93.0142 133.508 92.9574C133.508 92.9006 142.848 92.8519 154.37 92.8519C165.887 92.8519 175.227 92.9006 175.227 92.9574Z" fill="black"/>
<path d="M203.015 116.933C203.015 116.99 190.55 117.038 175.172 117.038C159.79 117.038 147.33 116.99 147.33 116.933C147.33 116.876 159.794 116.827 175.172 116.827C190.546 116.827 203.015 116.876 203.015 116.933Z" fill="black"/>
<path d="M203.04 115.051C203.04 115.051 203.953 114.004 204.042 112.666C204.131 111.327 203.492 109.66 201.995 109.66H182.842C179.738 109.66 177.223 112.074 177.223 115.051H203.04Z" fill="black"/>
<path d="M228.295 95.7641L224.963 89.1C224.054 87.2058 224.777 84.9547 226.646 83.8879L236.607 78.1891C237.127 77.8931 237.724 77.7349 238.328 77.7349H240.48L241.343 91.2051L238.024 92.4219L240.125 95.6992L228.295 95.7641Z" fill="#FEC54B"/>
<path d="M240.514 78.2216C240.514 78.2216 243.922 78.9719 244.349 84.0096C244.776 89.0513 241.343 90.6169 241.343 90.6169L240.514 78.2216Z" fill="#EBEBEB"/>
<path d="M229.457 86.4878C229.457 86.4878 222.57 89.6191 221.728 90.1342C221.145 90.4912 220.646 91.1158 221.103 92.215C221.885 94.0889 225.102 92.3245 225.102 92.3245L231.512 89.25C231.512 89.25 233.977 88.1346 233.068 86.7353C232.049 85.1737 229.457 86.4878 229.457 86.4878Z" fill="black"/>
<path d="M219.707 85.3481C219.707 85.3481 226.176 86.4108 226.726 86.5528C227.276 86.6948 229.436 87.6763 229.546 88.3091C229.656 88.9418 229.546 90.8036 229.546 90.8036C229.546 90.8036 229.157 91.1078 228.912 90.4994C228.667 89.8909 228.705 88.6863 228.705 88.6863L227.496 88.2401L228.155 89.3637L228.265 91.996C228.265 91.996 227.419 91.923 227.259 91.2903C227.094 90.6616 227.098 89.9558 227.098 89.9558L226.219 89.2379L226.878 90.0937L227.102 91.992C227.102 91.992 226.46 92.1907 226.257 91.7689C226.054 91.3471 226.037 90.0937 226.037 90.0937L223.551 89.2623L221.906 90.1424L219.318 88.7836L219.707 85.3481Z" fill="#FFBE9D"/>
<path d="M229.787 76.7007C229.787 79.2155 228.582 81.2516 227.098 81.2516C225.614 81.2516 224.409 79.2155 224.409 76.7007C224.409 74.1859 225.614 72.1498 227.098 72.1498C228.582 72.1498 229.787 74.19 229.787 76.7007Z" fill="black"/>
<path d="M227.538 79.8278L229.014 84.7397C229.673 84.4193 229.813 83.7865 229.703 83.2876C229.331 81.6044 229.124 80.4078 228.713 78.9314C228.667 78.7895 227.538 79.8278 227.538 79.8278Z" fill="black"/>
<g opacity="0.4">
<g opacity="0.4">
<path opacity="0.4" d="M198.288 139.306C198.14 138.901 197.992 138.487 197.852 138.061C197.721 137.663 197.565 137.254 197.455 136.86C197.252 136.155 197.133 135.429 197.087 135.011C194.592 144.753 198.402 151.612 204.939 152.095C214.49 152.801 226.138 153.312 230.849 152.127C239.436 149.965 242.586 143.099 243.339 141.963C244.091 140.831 250.92 128.854 246.734 117.322C242.548 105.791 235.25 93.5455 235.25 93.5455L228.295 95.7683C228.295 95.7683 229.567 101.463 231.584 108.277C233.8 115.769 236.768 127.487 236.603 134.341C236.438 141.196 232.616 145.816 232.616 145.816H201.049C201.044 145.812 200.368 145.163 198.288 139.306Z" fill="black"/>
</g>
</g>
<path d="M131.301 134.118L131.525 131.806L189.146 138.174C192.398 138.539 194.66 141.456 194.089 144.55L193.831 145.95L134.193 137.635C132.405 137.387 131.132 135.842 131.301 134.118Z" fill="#FEC54B"/>
<g opacity="0.6">
<g opacity="0.6">
<path opacity="0.6" d="M131.301 134.118L131.525 131.806L189.146 138.174C192.398 138.539 194.66 141.456 194.089 144.55L193.831 145.95L134.193 137.635C132.405 137.387 131.132 135.842 131.301 134.118Z" fill="black"/>
</g>
</g>
<g opacity="0.3">
<g opacity="0.3">
<g opacity="0.3">
<path opacity="0.3" d="M243.338 149.58C243.338 149.58 256.023 136.195 258.64 125.674C259.52 125.666 261.566 125.751 262.568 125.953C262.564 125.953 255.063 145.516 243.338 149.58Z" fill="black"/>
</g>
</g>
</g>
<path d="M258.454 120.96C258.463 120.96 258.484 121.074 258.522 121.297C258.556 121.52 258.623 121.849 258.666 122.274C258.746 123.126 258.801 124.384 258.568 125.909C258.34 127.434 257.795 129.21 256.894 131.052C256.015 132.901 254.797 134.812 253.537 136.811C250.996 140.823 248.167 144.1 246.112 146.445C245.081 147.613 244.226 148.546 243.635 149.191C243.347 149.499 243.119 149.742 242.95 149.925C242.789 150.091 242.704 150.176 242.7 150.172C242.696 150.168 242.768 150.075 242.916 149.896C243.076 149.71 243.296 149.454 243.571 149.134C244.159 148.46 244.979 147.511 245.994 146.347C248.019 143.983 250.818 140.693 253.351 136.702C254.615 134.702 255.829 132.804 256.712 130.971C257.617 129.145 258.171 127.393 258.416 125.888C258.67 124.38 258.64 123.138 258.581 122.287C258.551 121.861 258.496 121.532 258.48 121.305C258.454 121.078 258.446 120.96 258.454 120.96Z" fill="black"/>
<path d="M236.523 149.483C236.48 149.523 235.571 148.736 234.493 147.722C233.415 146.708 232.574 145.853 232.616 145.812C232.658 145.771 233.567 146.558 234.65 147.572C235.728 148.586 236.569 149.442 236.523 149.483Z" fill="black"/>
<path d="M198.879 149.073C198.829 149.049 199.175 148.233 199.81 147.341C200.44 146.445 201.103 145.832 201.141 145.873C201.188 145.913 200.609 146.578 199.991 147.463C199.37 148.339 198.939 149.097 198.879 149.073Z" fill="black"/>
<path d="M174.508 156.8C174.458 156.759 175.417 156.171 176.238 154.691C176.648 153.961 176.982 153.007 177.088 151.912C177.193 150.825 177.028 149.592 176.47 148.448C175.891 147.313 174.999 146.416 174.052 145.808C173.1 145.195 172.12 144.847 171.27 144.692C169.553 144.372 168.475 144.721 168.475 144.656C168.475 144.648 168.538 144.632 168.665 144.603C168.792 144.579 168.974 144.522 169.219 144.502C169.705 144.429 170.428 144.409 171.299 144.55C172.17 144.688 173.185 145.033 174.166 145.65C175.147 146.262 176.073 147.183 176.669 148.359C177.244 149.544 177.405 150.813 177.286 151.933C177.172 153.052 176.809 154.025 176.373 154.764C175.942 155.502 175.468 156.029 175.1 156.346C174.927 156.516 174.766 156.613 174.665 156.694C174.568 156.767 174.513 156.804 174.508 156.8Z" fill="black"/>
<path d="M153.465 152.561C153.406 152.565 153.313 151.689 153.258 150.61C153.203 149.531 153.211 148.655 153.27 148.651C153.33 148.647 153.423 149.519 153.478 150.602C153.533 151.681 153.528 152.561 153.465 152.561Z" fill="black"/>
<path d="M154.995 152.565C154.936 152.573 154.771 151.701 154.627 150.622C154.484 149.539 154.416 148.659 154.475 148.651C154.534 148.643 154.699 149.515 154.843 150.598C154.987 151.673 155.055 152.557 154.995 152.565Z" fill="black"/>
<path d="M178.758 115.051C178.758 115.108 171.752 115.156 163.114 115.156C154.471 115.156 147.465 115.108 147.465 115.051C147.465 114.994 154.471 114.945 163.114 114.945C171.752 114.945 178.758 114.994 178.758 115.051Z" fill="black"/>
<path d="M156.069 115.03C156.01 115.03 155.959 107.332 155.959 97.8408C155.959 88.3455 156.01 80.6471 156.069 80.6471C156.129 80.6471 156.179 88.3415 156.179 97.8408C156.179 107.332 156.133 115.03 156.069 115.03Z" fill="black"/>
<path d="M151.782 115.002C151.723 114.998 152.023 107.308 152.45 97.8205C152.881 88.3334 153.279 80.643 153.338 80.6471C153.397 80.6512 153.097 88.3415 152.67 97.8286C152.239 107.316 151.841 115.006 151.782 115.002Z" fill="black"/>
<path d="M142.078 161.911C142.074 161.915 142.011 161.854 141.892 161.732C141.778 161.606 141.601 161.432 141.398 161.185C140.979 160.702 140.421 159.964 139.838 158.986C138.671 157.051 137.512 154.026 137.525 150.566C137.542 147.102 138.726 144.088 139.909 142.162C140.501 141.188 141.068 140.454 141.487 139.975C141.689 139.728 141.871 139.558 141.985 139.432C142.104 139.31 142.167 139.249 142.171 139.253C142.176 139.257 142.125 139.33 142.019 139.46C141.918 139.594 141.744 139.773 141.554 140.024C141.157 140.519 140.611 141.261 140.045 142.235C138.903 144.165 137.757 147.146 137.745 150.566C137.732 153.981 138.848 156.974 139.973 158.913C140.531 159.891 141.068 160.637 141.465 161.136C141.656 161.391 141.825 161.574 141.926 161.704C142.032 161.834 142.083 161.902 142.078 161.911Z" fill="black"/>
<path d="M202.651 131.007L202.52 131.247L199.975 135.842L196.406 139.14L203.539 148.25L209.484 147.305C209.484 147.305 208.816 146.003 205.835 145.751L204.693 140.308L208.883 134.078" fill="black"/>
<path d="M196.406 139.136L203.535 148.245L209.479 147.3L208.663 146.55L203.784 147.061L197.163 138.434L196.406 139.136Z" fill="#E0E0E0"/>
<path d="M205.357 143.244C205.323 143.309 204.947 143.179 204.49 143.265C204.029 143.338 203.729 143.589 203.67 143.536C203.607 143.504 203.881 143.106 204.44 143.013C205.002 142.912 205.404 143.192 205.357 143.244Z" fill="black"/>
<path d="M205.027 141.902C204.977 141.95 204.651 141.658 204.165 141.646C203.674 141.63 203.332 141.902 203.285 141.849C203.26 141.825 203.311 141.719 203.463 141.606C203.611 141.492 203.869 141.383 204.173 141.391C204.478 141.399 204.727 141.525 204.867 141.65C205.006 141.772 205.053 141.881 205.027 141.902Z" fill="black"/>
<path d="M204.761 140.154C204.702 140.194 204.44 139.898 204.004 139.829C203.569 139.752 203.218 139.947 203.175 139.886C203.154 139.862 203.218 139.768 203.37 139.683C203.522 139.598 203.772 139.529 204.051 139.578C204.325 139.626 204.537 139.768 204.651 139.898C204.765 140.028 204.79 140.133 204.761 140.154Z" fill="black"/>
<path d="M206.118 138.547C206.051 138.584 205.827 138.284 205.421 138.113C205.019 137.931 204.638 137.967 204.622 137.898C204.592 137.838 205.032 137.663 205.531 137.882C206.03 138.093 206.19 138.527 206.118 138.547Z" fill="black"/>
<path d="M206.689 137.254C206.664 137.278 206.427 137.079 206.068 136.738C205.865 136.54 205.657 136.337 205.446 136.134C205.336 136.012 205.197 135.915 205.091 135.716C205.04 135.615 205.023 135.489 205.065 135.363C205.104 135.234 205.26 135.128 205.391 135.128C205.657 135.124 205.822 135.23 205.996 135.315C206.161 135.412 206.304 135.53 206.427 135.651C206.668 135.903 206.807 136.183 206.879 136.426C207.023 136.921 206.9 137.237 206.879 137.225C206.833 137.221 206.879 136.917 206.702 136.483C206.613 136.268 206.469 136.029 206.249 135.814C206.139 135.708 206.008 135.611 205.865 135.53C205.725 135.453 205.543 135.372 205.416 135.38C205.357 135.388 205.332 135.408 205.315 135.449C205.298 135.493 205.302 135.558 205.328 135.611C205.383 135.728 205.518 135.85 205.628 135.972C205.827 136.191 206.017 136.402 206.207 136.613C206.528 136.986 206.719 137.229 206.689 137.254Z" fill="black"/>
<path d="M206.934 137.387C206.905 137.391 206.875 137.087 207.137 136.694C207.395 136.321 208.021 135.862 208.845 136.11C208.909 136.146 208.964 136.219 208.972 136.3C208.981 136.382 208.959 136.442 208.93 136.491C208.875 136.592 208.803 136.645 208.748 136.706C208.625 136.82 208.499 136.921 208.368 137.002C208.11 137.168 207.847 137.274 207.623 137.335C207.171 137.456 206.875 137.416 206.879 137.387C206.875 137.347 207.158 137.323 207.564 137.164C207.767 137.087 208 136.974 208.228 136.807C208.342 136.726 208.456 136.633 208.566 136.528C208.621 136.471 208.676 136.418 208.697 136.373C208.718 136.321 208.714 136.333 208.702 136.321C208.68 136.304 208.596 136.292 208.52 136.288C208.444 136.284 208.368 136.284 208.296 136.292C208.148 136.304 208.008 136.341 207.877 136.39C207.619 136.487 207.425 136.645 207.289 136.803C207.019 137.12 206.976 137.396 206.934 137.387Z" fill="black"/>
<path d="M201.116 138.207C201.18 138.58 200.918 138.933 200.529 138.998C200.14 139.058 199.772 138.807 199.704 138.434C199.641 138.061 199.903 137.708 200.292 137.643C200.681 137.582 201.049 137.833 201.116 138.207Z" fill="#E0E0E0"/>
<path d="M224.299 135.388L226.206 147.264L241.622 145.065C241.313 143.666 232.895 141.967 232.895 141.967L231.999 134.309L224.299 135.388Z" fill="black"/>
<path d="M228.033 142.007C227.745 142.129 227.589 142.478 227.703 142.757C227.817 143.037 228.189 143.191 228.477 143.078C228.764 142.96 228.967 142.547 228.819 142.279C228.671 142.015 228.227 141.853 227.978 142.031" fill="#E0E0E0"/>
<path d="M226.206 147.264L226.062 146.059L240.899 144.4C240.899 144.4 241.631 144.587 241.626 145.066L226.206 147.264Z" fill="#E0E0E0"/>
<path d="M233.136 141.857C233.144 141.93 232.772 142.015 232.438 142.303C232.096 142.579 231.952 142.92 231.88 142.9C231.808 142.895 231.855 142.449 232.265 142.109C232.671 141.768 233.14 141.788 233.136 141.857Z" fill="black"/>
<path d="M234.853 142.267C234.882 142.336 234.573 142.502 234.366 142.847C234.146 143.183 234.134 143.524 234.058 143.528C233.99 143.549 233.872 143.135 234.138 142.713C234.4 142.291 234.84 142.198 234.853 142.267Z" fill="black"/>
<path d="M236.057 143.991C235.99 144.015 235.829 143.67 235.964 143.248C236.091 142.823 236.425 142.616 236.463 142.672C236.514 142.725 236.32 142.969 236.218 143.321C236.104 143.666 236.134 143.974 236.057 143.991Z" fill="black"/>
<path d="M232.73 140.133C232.709 140.202 232.35 140.154 231.927 140.243C231.504 140.324 231.195 140.506 231.145 140.45C231.094 140.405 231.373 140.089 231.872 139.991C232.371 139.89 232.756 140.068 232.73 140.133Z" fill="black"/>
<path d="M232.092 138.43C232.096 138.458 231.808 138.547 231.318 138.535C231.077 138.531 230.785 138.495 230.472 138.413C230.316 138.373 230.155 138.32 229.994 138.251C229.918 138.219 229.825 138.186 229.732 138.109C229.635 138.044 229.559 137.862 229.639 137.732C229.703 137.606 229.834 137.537 229.944 137.521C230.058 137.501 230.151 137.509 230.24 137.517C230.417 137.533 230.586 137.566 230.743 137.606C231.056 137.692 231.322 137.821 231.525 137.951C231.931 138.219 232.096 138.47 232.07 138.486C232.041 138.515 231.829 138.312 231.428 138.105C231.225 138 230.971 137.898 230.679 137.829C230.531 137.797 230.379 137.773 230.214 137.76C230.045 137.744 229.906 137.76 229.876 137.838C229.863 137.866 229.863 137.878 229.906 137.919C229.948 137.955 230.02 137.988 230.096 138.02C230.244 138.085 230.396 138.142 230.54 138.186C230.827 138.276 231.098 138.328 231.33 138.353C231.791 138.413 232.083 138.389 232.092 138.43Z" fill="black"/>
<path d="M232.007 138.547C231.982 138.564 231.791 138.324 231.694 137.862C231.643 137.631 231.627 137.347 231.673 137.034C231.698 136.88 231.736 136.718 231.8 136.556C231.868 136.398 231.948 136.187 232.235 136.11C232.388 136.081 232.531 136.179 232.591 136.272C232.658 136.365 232.679 136.45 232.713 136.531C232.768 136.702 232.789 136.868 232.789 137.03C232.789 137.351 232.696 137.635 232.578 137.842C232.337 138.267 232.037 138.397 232.024 138.377C231.994 138.345 232.235 138.166 232.409 137.764C232.493 137.566 232.557 137.314 232.544 137.034C232.54 136.897 232.514 136.75 232.464 136.609C232.417 136.454 232.333 136.337 232.273 136.361C232.197 136.369 232.083 136.507 232.041 136.641C231.982 136.783 231.939 136.929 231.91 137.071C231.855 137.351 231.851 137.614 231.876 137.829C231.927 138.272 232.049 138.531 232.007 138.547Z" fill="black"/>
<path d="M212.169 107.49L198.943 135.128L207.678 140.158L225.957 106.902" fill="black"/>
<path d="M233.969 140.786L224.481 142.247L218.802 109.741L190.749 111.692C190.004 111.737 189.256 111.676 188.537 111.485C180.656 109.413 181.726 99.7795 182.483 98.2341L221.301 97.1633C225.512 97.0457 229.14 99.9863 229.724 103.99L233.969 140.786Z" fill="black"/>
<path d="M182.102 99.7632L182.242 86.0213C182.242 86.0213 180.394 77.0857 179.844 73.5732C178.994 68.1178 177.832 65.53 187.142 61.6524L189.176 60.8979L192.326 60.9385C196.084 61.2103 200.042 64.4673 200.131 66.6292L203.754 97.5973L182.102 99.7632Z" fill="#FEC54B"/>
<path d="M182.686 64.8485C182.686 64.8485 180.06 70.2755 180.584 75.2199L190.381 84.2406C192.579 86.585 195.323 87.5828 198.837 87.7856L219.107 89.911L219.669 84.8247L200.385 79.5842C199.619 79.4504 199.234 78.6797 198.647 78.1889L182.686 64.8485Z" fill="#FEC54B"/>
<path d="M181.104 66.4143C181.104 66.4143 181.214 66.2966 181.493 66.1628C181.773 66.033 182.212 65.8991 182.804 65.8099C183.392 65.7288 184.136 65.6679 184.994 65.814C185.206 65.8626 185.43 65.9113 185.637 66.0249C185.84 66.1384 186.035 66.2723 186.233 66.4143C186.626 66.7063 187.02 67.0389 187.417 67.408C188.229 68.134 188.998 69.0548 189.899 69.9877C190.795 70.9246 191.785 71.9224 192.859 72.9729C193.928 74.0234 195.083 75.1226 196.322 76.2583C196.943 76.8221 197.582 77.3981 198.258 77.9619C198.601 78.2337 198.939 78.55 199.264 78.8461C199.594 79.1382 199.97 79.4099 200.402 79.487H200.406H200.41C206.144 81.0405 212.723 82.8251 219.695 84.7193L219.784 84.7436L219.775 84.8329C219.737 85.1939 219.691 85.5833 219.648 85.9726C219.5 87.3233 219.352 88.6618 219.213 89.9192L219.2 90.0246L219.09 90.0125C216.143 89.7002 213.272 89.4 210.511 89.108C209.129 88.962 207.776 88.82 206.452 88.678C205.125 88.5482 203.831 88.4225 202.567 88.3008C201.302 88.167 200.076 88.0291 198.888 87.8628C197.7 87.6965 196.546 87.4855 195.484 87.1043C194.419 86.7311 193.468 86.1957 192.614 85.6279C191.755 85.056 190.977 84.4597 190.246 83.8716C187.349 81.4988 185.223 79.3815 183.747 77.9376C183.016 77.2115 182.453 76.6396 182.077 76.2502C181.895 76.0596 181.756 75.9095 181.654 75.8041C181.561 75.7027 181.515 75.6459 181.515 75.6459C181.515 75.6459 181.57 75.6905 181.667 75.7878C181.773 75.8892 181.916 76.0353 182.107 76.2218C182.5 76.6072 183.071 77.1669 183.802 77.8848C185.295 79.3126 187.438 81.4136 190.339 83.7661C191.07 84.3462 191.852 84.9383 192.707 85.5021C193.556 86.0659 194.495 86.5892 195.544 86.9501C196.592 87.3233 197.73 87.5261 198.918 87.6884C200.102 87.8506 201.328 87.9885 202.592 88.1183C203.856 88.24 205.15 88.3617 206.478 88.4874C207.801 88.6253 209.158 88.7673 210.537 88.9092C213.298 89.1972 216.169 89.4974 219.12 89.8056L218.997 89.8989C219.137 88.6415 219.285 87.303 219.433 85.9524C219.475 85.563 219.517 85.1736 219.56 84.8126L219.64 84.9262C212.668 83.0279 206.093 81.2351 200.359 79.6736L200.368 79.6776C199.869 79.5884 199.472 79.2882 199.133 78.9881C198.791 78.6758 198.482 78.3837 198.131 78.1039C197.455 77.536 196.812 76.956 196.191 76.3881C194.956 75.2484 193.806 74.1411 192.736 73.0865C191.671 72.0319 190.685 71.0301 189.789 70.085C188.889 69.144 188.132 68.2233 187.333 67.4972C186.939 67.1281 186.55 66.7915 186.166 66.5035C185.971 66.3615 185.781 66.2236 185.586 66.1141C185.396 66.0046 185.176 65.9559 184.973 65.9073C184.136 65.7531 183.392 65.8058 182.808 65.8748C182.221 65.9519 181.781 66.0735 181.502 66.1952C181.227 66.3129 181.109 66.4224 181.104 66.4143Z" fill="black"/>
<path d="M186.161 48.9813L187.147 62.3583C187.307 64.5404 189.201 66.2359 191.485 66.2359C193.996 66.2359 195.988 64.1957 195.823 61.7904C195.734 60.5168 195.658 59.4744 195.658 59.4744C195.658 59.4744 199.032 58.9715 199.074 55.7347C199.1 53.8649 198.761 49.6222 198.474 46.3692C198.279 44.1708 196.36 42.4835 194.06 42.4835H192.022C188.508 42.6823 185.861 45.6229 186.161 48.9813Z" fill="#FFBE9D"/>
<path d="M195.662 59.4297C195.662 59.4297 193.527 59.596 191.26 58.2291C191.26 58.2291 192.301 60.5614 195.67 60.2693L195.662 59.4297Z" fill="#EB996E"/>
<path d="M197.713 50.5308C197.721 50.7741 197.514 50.985 197.247 50.9972C196.981 51.0094 196.761 50.8228 196.749 50.5794C196.74 50.3361 196.947 50.1252 197.214 50.113C197.48 50.1008 197.704 50.2874 197.713 50.5308Z" fill="black"/>
<path d="M197.89 49.6181C197.831 49.6789 197.467 49.4193 196.947 49.4193C196.427 49.4153 196.047 49.6708 195.992 49.61C195.962 49.5816 196.025 49.4761 196.19 49.3585C196.355 49.2449 196.63 49.1313 196.956 49.1313C197.277 49.1313 197.552 49.249 197.708 49.3625C197.865 49.4842 197.92 49.5897 197.89 49.6181Z" fill="black"/>
<path d="M192.841 50.5308C192.85 50.7741 192.643 50.985 192.376 50.9972C192.11 51.0094 191.89 50.8228 191.877 50.5794C191.869 50.3361 192.076 50.1252 192.343 50.113C192.609 50.1008 192.833 50.2874 192.841 50.5308Z" fill="black"/>
<path d="M192.791 49.7113C192.732 49.7722 192.364 49.5126 191.848 49.5126C191.328 49.5085 190.947 49.7641 190.893 49.7032C190.863 49.6748 190.926 49.5694 191.091 49.4517C191.256 49.3382 191.531 49.2246 191.857 49.2246C192.178 49.2246 192.453 49.3422 192.609 49.4558C192.766 49.5734 192.821 49.6829 192.791 49.7113Z" fill="black"/>
<path d="M194.672 53.4023C194.668 53.3739 194.994 53.3212 195.514 53.2563C195.645 53.2441 195.772 53.2198 195.793 53.1306C195.822 53.0373 195.768 52.9034 195.704 52.7534C195.581 52.4451 195.45 52.1247 195.311 51.7839C194.765 50.4049 194.372 49.2732 194.431 49.253C194.491 49.2327 194.977 50.3319 195.522 51.7109C195.653 52.0516 195.78 52.3761 195.899 52.6844C195.949 52.8304 196.034 52.9927 195.966 53.1833C195.932 53.2766 195.835 53.3455 195.746 53.3699C195.662 53.3942 195.586 53.3942 195.522 53.3983C195.002 53.4267 194.677 53.4307 194.672 53.4023Z" fill="black"/>
<path d="M193.146 53.7472C193.231 53.7431 193.231 54.2826 193.713 54.6679C194.195 55.0532 194.795 54.9924 194.799 55.0654C194.808 55.0978 194.664 55.1708 194.41 55.1749C194.161 55.183 193.797 55.1059 193.505 54.8707C193.209 54.6354 193.087 54.3231 193.066 54.1C193.045 53.877 193.108 53.7431 193.146 53.7472Z" fill="black"/>
<path d="M192.926 47.7604C192.875 47.8942 192.355 47.8334 191.746 47.9023C191.138 47.9591 190.647 48.1335 190.567 48.0119C190.529 47.9551 190.617 47.8253 190.816 47.6955C191.011 47.5657 191.328 47.44 191.691 47.3994C192.055 47.3629 192.393 47.4156 192.613 47.5049C192.837 47.59 192.947 47.6955 192.926 47.7604Z" fill="black"/>
<path d="M197.7 48.1782C197.607 48.2918 197.252 48.1742 196.82 48.1701C196.389 48.1498 196.025 48.2472 195.945 48.1295C195.907 48.0727 195.966 47.9592 196.123 47.8537C196.279 47.7483 196.541 47.659 196.837 47.6671C197.133 47.6753 197.387 47.7767 197.539 47.8943C197.691 48.0079 197.742 48.1214 197.7 48.1782Z" fill="black"/>
<path d="M187.299 51.4151C187.239 51.3907 184.977 50.758 185.053 52.9726C185.125 55.1872 187.43 54.6599 187.43 54.595C187.434 54.5261 187.299 51.4151 187.299 51.4151Z" fill="#FFBE9D"/>
<path d="M186.698 53.7756C186.69 53.7675 186.66 53.804 186.592 53.8365C186.529 53.8689 186.415 53.8892 186.292 53.8527C186.047 53.7756 185.827 53.4106 185.802 53.009C185.789 52.8062 185.827 52.6156 185.895 52.4534C185.958 52.2911 186.064 52.1735 186.186 52.1492C186.309 52.1167 186.398 52.1857 186.428 52.2465C186.461 52.3073 186.449 52.352 186.461 52.356C186.47 52.3601 186.508 52.3154 186.487 52.2262C186.474 52.1816 186.449 52.1329 186.389 52.0883C186.334 52.0478 186.25 52.0275 186.165 52.0396C185.988 52.0559 185.831 52.2181 185.755 52.3966C185.671 52.575 185.624 52.79 185.637 53.0172C185.666 53.4633 185.92 53.873 186.254 53.9541C186.419 53.9906 186.55 53.9379 186.618 53.8852C186.694 53.8284 186.707 53.7797 186.698 53.7756Z" fill="#EB996E"/>
<path d="M186.018 51.3379C186.368 51.2568 186.977 51.5691 187.13 51.8855C187.282 52.2018 187.311 52.5588 187.464 52.8751C187.612 53.1915 187.95 53.4795 188.305 53.3984C188.546 53.3416 188.724 53.1266 188.787 52.8914C188.85 52.6602 188.825 52.4168 188.795 52.1775C188.66 51.1432 188.432 50.117 188.39 49.0787C188.347 48.0362 188.499 46.9573 189.07 46.069C189.641 45.1808 190.685 44.5277 191.768 44.6129C192.487 44.6697 193.142 45.0266 193.857 45.124C194.702 45.2376 195.594 44.9496 196.199 44.3736C196.275 44.3006 196.639 44.0735 196.639 44.0735C196.639 44.0207 196.588 43.5583 196.398 43.388C194.985 42.1347 192.436 41.7858 190.571 42.2361C188.702 42.6863 186.952 43.9518 186.149 45.631C185.337 47.3062 185.574 49.6384 186.018 51.3379Z" fill="black"/>
<path d="M198.512 45.8702C198.512 45.8702 189.658 43.1364 185.827 50.486C185.827 50.486 185.256 48.6486 185.256 47.663C185.256 47.0059 185.666 43.0837 189.873 41.8506C189.869 41.8506 196.207 39.5306 198.512 45.8702Z" fill="#FEC54B"/>
<path d="M190.901 46.0568C191.214 46.5436 191.772 46.8721 192.364 46.9248C192.956 46.9776 193.569 46.7464 193.966 46.3245C194.14 46.7423 194.609 47.0303 195.078 47.006C195.548 46.9816 195.983 46.649 196.11 46.215C196.368 46.4543 196.634 46.7018 196.973 46.8194C197.311 46.937 197.734 46.8924 197.958 46.6206C198.182 46.3448 198.119 45.9271 197.899 45.6472C197.679 45.3673 197.336 45.201 197.002 45.0672C195.949 44.6453 194.791 44.4344 193.662 44.5804C192.533 44.7265 191.438 45.2537 190.732 46.1096" fill="black"/>
<g opacity="0.4">
<g opacity="0.4">
<g opacity="0.4">
<g opacity="0.4">
<path opacity="0.4" d="M198.512 45.8702C198.512 45.8702 197.505 44.7182 195.696 44.6452C193.083 44.5357 188.195 45.9432 185.827 50.49C185.827 50.49 185.256 48.6526 185.256 47.667C185.256 47.0099 185.666 43.0877 189.873 41.8546C189.869 41.8506 196.207 39.5305 198.512 45.8702Z" fill="black"/>
</g>
</g>
</g>
</g>
<path d="M186.195 49.6261C187.51 47.6995 189.32 46.1054 191.353 44.8846C193.387 43.6637 196.753 42.459 199.074 41.8668C199.772 41.6884 200.495 41.5343 201.205 41.6519C201.915 41.7695 202.609 42.2238 202.786 42.893C203.006 43.7326 201.454 45.0265 200.727 45.5335C200 46.0405 198.512 46.7909 198.512 46.7909C198.512 46.7909 198.533 45.2334 195.937 44.913C192.402 44.483 186.195 49.6261 186.195 49.6261Z" fill="#FEC54B"/>
<g opacity="0.3">
<g opacity="0.3">
<g opacity="0.3">
<path opacity="0.3" d="M183.079 77.2278C183.992 79.341 184.914 81.9491 186.237 83.8513C187.561 85.7536 189.328 87.441 191.531 88.3252C194.292 89.4325 197.56 89.615 200.309 88.4753C200.533 88.382 200.972 88.2644 200.93 88.0332C200.93 88.0332 200.021 87.9358 199.738 87.8912C194.182 86.9908 193.582 86.3337 190.922 84.3178C189.265 83.0645 185.59 79.2639 183.079 77.2278Z" fill="black"/>
</g>
</g>
</g>
<path d="M200.731 92.6164C200.744 92.6205 200.672 92.803 200.499 93.1113C200.33 93.4195 200.038 93.8454 199.603 94.3119C198.74 95.2529 197.209 96.271 195.298 96.8348C193.391 97.3986 191.582 97.4999 190.292 97.5527C189.645 97.577 189.121 97.5811 188.762 97.5811C188.398 97.5811 188.199 97.573 188.199 97.5567C188.199 97.5405 188.398 97.5243 188.757 97.5C189.163 97.4756 189.675 97.4432 190.284 97.4067C191.565 97.3174 193.358 97.1876 195.235 96.636C197.108 96.0803 198.617 95.1069 199.488 94.2105C200.376 93.3181 200.689 92.5921 200.731 92.6164Z" fill="black"/>
<path d="M224.654 143.216C224.65 143.216 224.637 143.175 224.62 143.09C224.599 142.997 224.574 142.871 224.544 142.717C224.481 142.376 224.388 141.894 224.274 141.277C224.045 140.012 223.716 138.207 223.314 135.98C222.523 131.494 221.432 125.317 220.227 118.494C219.69 115.408 219.179 112.451 218.709 109.753L218.819 109.835C213.894 110.179 209.678 110.475 206.68 110.686C205.201 110.784 204.021 110.861 203.196 110.913C202.803 110.934 202.494 110.954 202.266 110.966C202.169 110.97 202.089 110.974 202.025 110.974C201.97 110.974 201.945 110.974 201.945 110.97C201.945 110.966 201.97 110.962 202.025 110.954C202.089 110.946 202.169 110.938 202.262 110.93C202.486 110.909 202.795 110.881 203.188 110.845C204.012 110.776 205.192 110.682 206.668 110.561C209.661 110.333 213.872 110.009 218.798 109.632L218.891 109.624L218.908 109.713C219.382 112.406 219.902 115.363 220.443 118.45C221.623 125.276 222.692 131.457 223.466 135.948C223.842 138.178 224.147 139.987 224.358 141.253C224.455 141.869 224.536 142.352 224.591 142.697C224.612 142.855 224.633 142.977 224.646 143.074C224.654 143.171 224.654 143.216 224.654 143.216Z" fill="black"/>
<path d="M221.652 106.845C221.69 106.894 220.955 107.502 220.113 108.322C219.272 109.137 218.65 109.859 218.599 109.818C218.553 109.786 219.103 108.999 219.957 108.172C220.811 107.344 221.618 106.801 221.652 106.845Z" fill="black"/>
<path d="M195.738 62.0783C195.747 62.0783 195.763 62.1229 195.789 62.2121C195.818 62.3014 195.844 62.4352 195.869 62.6096C195.911 62.9585 195.89 63.4857 195.662 64.086C195.434 64.6782 194.99 65.3434 194.271 65.8423C193.556 66.3412 192.567 66.6008 191.556 66.5359C190.542 66.471 189.611 66.106 188.922 65.5908C188.225 65.0798 187.747 64.4633 187.426 63.9157C187.108 63.36 186.939 62.8773 186.855 62.5366C186.812 62.3663 186.783 62.2324 186.77 62.1432C186.758 62.054 186.753 62.0053 186.762 62.0012C186.808 61.985 186.914 62.7759 187.565 63.8427C187.895 64.3659 188.373 64.954 189.049 65.4367C189.717 65.9234 190.609 66.2642 191.578 66.329C192.542 66.3899 193.476 66.1465 194.161 65.6841C194.85 65.2258 195.29 64.5971 195.527 64.0333C195.759 63.4655 195.81 62.9585 195.793 62.6177C195.768 62.273 195.713 62.0864 195.738 62.0783Z" fill="black"/>
<path d="M201.7 79.7912C201.683 79.7912 201.653 79.6411 201.611 79.3694C201.564 79.0489 201.505 78.6636 201.442 78.2093C201.302 77.175 201.12 75.8447 200.922 74.3764C200.732 72.8756 200.579 71.5168 200.486 70.5312C200.44 70.0364 200.406 69.6389 200.389 69.363C200.372 69.0872 200.368 68.9331 200.385 68.9331C200.402 68.9331 200.431 69.0832 200.474 69.3549C200.52 69.6754 200.575 70.0607 200.638 70.515C200.774 71.5493 200.947 72.8797 201.137 74.352C201.328 75.8487 201.497 77.2075 201.594 78.1931C201.645 78.688 201.679 79.0855 201.696 79.3613C201.712 79.6371 201.717 79.7912 201.7 79.7912Z" fill="black"/>
</svg>
